<?xml version="1.0" encoding="utf-8"?>
<!-- Generator: Adobe Illustrator 26.1.0, SVG Export Plug-In . SVG Version: 6.00 Build 0)  -->
<svg version="1.1" id="_x36_" xmlns="http://www.w3.org/2000/svg" xmlns:xlink="http://www.w3.org/1999/xlink" x="0px" y="0px"
	 viewBox="0 0 512 512" style="enable-background:new 0 0 512 512;" xml:space="preserve">
<style type="text/css">
	.st0{fill:#89929F;}
	.st1{opacity:6.000000e-02;fill:#0D0D0D;enable-background:new    ;}
	.st2{fill:#8BC66F;}
	.st3{fill:#F4DB6D;}
	.st4{fill:#E06276;}
</style>
<g>
	<path class="st0" d="M498.1,51.5v162.7c0,3.8-2.1,6.7-4,6.7H17.9c-1.9,0-4-2.9-4-6.7V51.5H498.1 M504.1,45.5H7.9v168.7
		c0,7,4.5,12.7,10,12.7h476.3c5.5,0,10-5.7,10-12.7V45.5L504.1,45.5z"/>
</g>
<path class="st0" d="M7.9,45.5v-9l0-0.3V12.9l0,0c0-0.6,0-1.2,0-1.8c0-5.7,0.1-8.2,15.5-8.2h465.5c15.4,0,15.5,4.3,15.5,8.2v34.4"/>
<rect x="16.7" y="35.4" class="st1" width="478.5" height="10.1"/>
<g>
	<ellipse class="st2" cx="75" cy="22.2" rx="5.9" ry="6.3"/>
	<ellipse class="st3" cx="53.5" cy="22.2" rx="5.9" ry="6.3"/>
	<ellipse class="st4" cx="32.1" cy="22.2" rx="5.9" ry="6.3"/>
</g>
</svg>
