<?xml version="1.0" encoding="utf-8"?>
<!-- Generator: Adobe Illustrator 19.0.0, SVG Export Plug-In . SVG Version: 6.00 Build 0)  -->
<svg version="1.1" id="Layer_1" xmlns="http://www.w3.org/2000/svg" xmlns:xlink="http://www.w3.org/1999/xlink" x="0px" y="0px"
	 viewBox="24 -37 1008 580" style="enable-background:new 24 -37 1008 580;" xml:space="preserve">
<style type="text/css">
	.st0{fill:#1A202C;stroke:#4A5568;stroke-width:2;}
	.st1{fill:#FFFFFF;}
	.st2{fill:#A0AEC0;}
	.st3{fill:#A3ACB1;}
	.st4{fill:url(#SVGID_1_);}
	.st5{fill:#647279;}
	.st6{fill:url(#SVGID_2_);}
	.st7{fill:#96A1A8;}
	.st8{fill:url(#SVGID_3_);}
</style>
<path class="st0" d="M123-9c0-14.9,12.1-27,27-27h760c14.9,0,27,12.1,27,27v522c0,1.7-1.3,3-3,3H126c-1.7,0-3-1.3-3-3V-9z"/>
<path d="M127-10c0-12.2,9.9-22,22-22h762c12.2,0,22,9.8,22,22v506H127V-10z"/>
<rect x="143" y="-6" class="st1" width="770" height="480"/>
<path class="st2" d="M488.2,498.5v9.5h1.6v-6.5h0.1l2.6,6.5h1.2l2.6-6.5h0.1v6.5h1.6v-9.5H496l-2.8,6.9h-0.1l-2.8-6.9H488.2z
	 M501.9,508.1c1.1,0,1.8-0.5,2.1-1.1h0.1v1h1.6v-4.7c0-1.9-1.5-2.4-2.9-2.4c-1.5,0-2.6,0.7-3,2l1.6,0.2c0.2-0.5,0.6-0.9,1.5-0.9
	c0.8,0,1.2,0.4,1.2,1.1v0c0,0.5-0.5,0.5-1.8,0.6c-1.4,0.1-2.7,0.6-2.7,2.2C499.5,507.4,500.6,508.1,501.9,508.1z M502.4,506.9
	c-0.7,0-1.2-0.3-1.2-0.9c0-0.6,0.6-0.9,1.3-1c0.4-0.1,1.3-0.2,1.5-0.3v0.8C504,506.2,503.4,506.9,502.4,506.9z M510.4,508.1
	c1.8,0,2.9-1.1,3-2.6h-1.6c-0.1,0.8-0.7,1.2-1.4,1.2c-1,0-1.7-0.9-1.7-2.3c0-1.4,0.7-2.3,1.7-2.3c0.8,0,1.3,0.5,1.4,1.2h1.6
	c-0.1-1.5-1.3-2.5-3-2.5c-2.1,0-3.4,1.5-3.4,3.7C507,506.6,508.3,508.1,510.4,508.1z M514.9,508h1.6v-1.1h0.1c0.3,0.5,0.8,1.2,2,1.2
	c1.7,0,2.9-1.3,2.9-3.7c0-2.4-1.3-3.6-2.9-3.6c-1.3,0-1.8,0.8-2,1.3h-0.1v-3.5h-1.7V508z M516.6,504.5c0-1.4,0.6-2.3,1.7-2.3
	c1.1,0,1.7,0.9,1.7,2.3c0,1.3-0.6,2.3-1.7,2.3C517.2,506.8,516.6,505.8,516.6,504.5z M526.1,508.1c2.1,0,3.4-1.5,3.4-3.7
	c0-2.2-1.3-3.7-3.4-3.7c-2.1,0-3.4,1.5-3.4,3.7C522.7,506.7,524.1,508.1,526.1,508.1z M526.1,506.8c-1.2,0-1.7-1-1.7-2.3
	c0-1.3,0.6-2.3,1.7-2.3c1.1,0,1.7,1,1.7,2.3C527.8,505.8,527.3,506.8,526.1,506.8z M534,508.1c2.1,0,3.4-1.5,3.4-3.7
	c0-2.2-1.3-3.7-3.4-3.7c-2.1,0-3.4,1.5-3.4,3.7C530.6,506.7,532,508.1,534,508.1z M534,506.8c-1.1,0-1.7-1-1.7-2.3
	c0-1.3,0.6-2.3,1.7-2.3c1.1,0,1.7,1,1.7,2.3C535.7,505.8,535.2,506.8,534,506.8z M538.9,508h1.7v-2.4l0.6-0.7l2.2,3h2l-2.9-4
	l2.7-3.1h-2l-2.5,2.8h-0.1v-5.2h-1.7V508z M549.6,508h1.7v-3.2h1.8c2.2,0,3.4-1.3,3.4-3.1c0-1.8-1.2-3.1-3.3-3.1h-3.5V508z
	 M551.3,503.4V500h1.6c1.3,0,1.9,0.7,1.9,1.7c0,1-0.6,1.7-1.8,1.7H551.3z M557.8,508h1.7v-4.2c0-0.9,0.7-1.5,1.6-1.5
	c0.3,0,0.6,0.1,0.8,0.1v-1.5c-0.2,0-0.4,0-0.6,0c-0.8,0-1.5,0.5-1.8,1.3h-0.1v-1.2h-1.6V508z M565.8,508.1c2.1,0,3.4-1.5,3.4-3.7
	c0-2.2-1.3-3.7-3.4-3.7c-2.1,0-3.4,1.5-3.4,3.7C562.4,506.7,563.7,508.1,565.8,508.1z M565.8,506.8c-1.2,0-1.7-1-1.7-2.3
	c0-1.3,0.6-2.3,1.7-2.3c1.1,0,1.7,1,1.7,2.3C567.5,505.8,566.9,506.8,565.8,506.8z"/>
<path class="st3" d="M24,515c0-1.1,0.9-2,2-2h1004c1.1,0,2,0.9,2,2v16H24V515z"/>
<linearGradient id="SVGID_1_" gradientUnits="userSpaceOnUse" x1="24" y1="40" x2="1032" y2="40" gradientTransform="matrix(1 0 0 -1 0 562)">
	<stop  offset="0" style="stop-color:#0D1012"/>
	<stop  offset="2.953450e-002" style="stop-color:#CAD4DB"/>
	<stop  offset="6.250000e-002" style="stop-color:#242729"/>
	<stop  offset="0.1336" style="stop-color:#A3ACB1"/>
	<stop  offset="0.866" style="stop-color:#A3ACB1"/>
	<stop  offset="0.9419" style="stop-color:#242729"/>
	<stop  offset="0.9713" style="stop-color:#CAD4DB"/>
	<stop  offset="0.9964" style="stop-color:#0D1012"/>
</linearGradient>
<path class="st4" d="M24,515c0-1.1,0.9-2,2-2h1004c1.1,0,2,0.9,2,2v16H24V515z"/>
<path class="st5" d="M24,531h1008l-20.4,4.1c-26,5.3-52.5,7.9-79.1,7.9H121.9c-29.2,0-58.3-3.2-86.8-9.5L24,531z"/>
<linearGradient id="SVGID_2_" gradientUnits="userSpaceOnUse" x1="528" y1="31" x2="528" y2="19" gradientTransform="matrix(1 0 0 -1 0 562)">
	<stop  offset="0" style="stop-color:#7A7F83"/>
	<stop  offset="1" style="stop-color:#0B0B0E"/>
</linearGradient>
<path class="st6" d="M24,531h1008l-20.4,4.1c-26,5.3-52.5,7.9-79.1,7.9H121.9c-29.2,0-58.3-3.2-86.8-9.5L24,531z"/>
<path class="st7" d="M445,513c0.5,7.8,7,14,15,14h137c7.9,0,14.5-6.2,15-14H445z"/>
<linearGradient id="SVGID_3_" gradientUnits="userSpaceOnUse" x1="461.5" y1="42" x2="598.5" y2="42" gradientTransform="matrix(1 0 0 -1 0 562)">
	<stop  offset="0" style="stop-color:#3C3C3C"/>
	<stop  offset="0.3175" style="stop-color:#3C3C3C;stop-opacity:0"/>
	<stop  offset="0.6606" style="stop-color:#3C3C3C;stop-opacity:0"/>
	<stop  offset="1" style="stop-color:#444444"/>
</linearGradient>
<path class="st8" d="M445,513c0.5,7.8,7,14,15,14h137c7.9,0,14.5-6.2,15-14H445z"/>
</svg>
