<?xml version="1.0" encoding="utf-8"?>
<!-- Generator: Adobe Illustrator 19.0.0, SVG Export Plug-In . SVG Version: 6.00 Build 0)  -->
<svg version="1.1" id="Layer_1" xmlns="http://www.w3.org/2000/svg" xmlns:xlink="http://www.w3.org/1999/xlink" x="0px" y="0px"
	 viewBox="1877 -1400 4713 3361" style="enable-background:new 1877 -1400 4713 3361;" xml:space="preserve">
<style type="text/css">
	.st0{fill:#F9B424;}
	.st1{fill:#F0C7A1;}
	.st2{fill:#C29675;}
	.st3{fill:#FBB479;}
	.st4{fill:#CB8E5C;}
	.st5{fill:#46161B;}
</style>
<path class="st0" d="M4233.6-1137.8c783.3,0,1418.3,635,1418.3,1418.3c0,783.3-635,1418.3-1418.3,1418.3
	c-783.3,0-1418.3-635-1418.3-1418.3C2815.3-502.8,3450.3-1137.8,4233.6-1137.8"/>
<path class="st1" d="M5003.9,1471.7c-221.8,143.7-486.2,227.2-770.2,227.2c-298.4,0-575.3-92.3-803.8-249.7
	c39.6-29.3,89.3-63.7,148.2-100.2c165.5-102.4,312-149.7,312-149.7l11-143.4c0,0-234.8-97.7-316.8-315.2s-25.2-535.8-44.1-687.1
	s-74.1-485.4-11-598.8c63-113.5,209.6-93,209.6-93s69.4-312,446-291.6c376.6,20.5,444.4,349.9,444.4,349.9s33.9-89.8,93-156.8
	c59.1-67,174.9-68.6,174.9-68.6s-78,47.3-121.3,111.9c-43.3,64.6-63.8,141.1-65.4,132.4c-1.6-8.7,61.5-81.2,124.5-122.1
	c63-41,120.6-40.2,120.6-40.2s-69.3,45.7-130.8,123.7c-61.5,78-75.6,100.9-75.6,100.9s249,44.9,219.1,238.8
	c-29.9,193.8-193.8,392.4-193.8,392.4s38.6,43.3,22.1,127.6c-16.5,84.3-96.1,181.2-133.1,212c-37,30.7-63,31.5-63,31.5
	s-15.8,37-25.2,55.9s-9.5,18.9-9.5,18.9l2.4,410.5l110.3,14.2l-29.9,186C4648.2,1189.1,4863.4,1355.7,5003.9,1471.7"/>
<path class="st2" d="M3871.3,1652.1c-7.8-2.1-15.6-4.2-23.3-6.4c39.3-175.4,104-436.9,176.7-573.4
	c103.2-194,102.9-195.8,102.9-195.8l23.4,5.9c0,0-0.3,4.4-105.1,201.3C3974.5,1217.8,3910.3,1477.9,3871.3,1652.1"/>
<path class="st3" d="M3901.1,1055.9c0,0-234.8-97.7-316.8-315.2s-25.2-535.8-44.1-687.1s-74.1-485.4-11-598.8
	c63-113.5,209.6-93,209.6-93s69.4-312,446-291.6c376.6,20.5,444.4,349.9,444.4,349.9s33.9-89.8,93-156.8
	c59.1-67,174.9-68.6,174.9-68.6s-78,47.3-121.3,111.9c-43.3,64.6-63.8,141.1-65.4,132.4c-1.6-8.7,61.5-81.2,124.5-122.1
	c63-41,120.6-40.2,120.6-40.2s-69.3,45.7-130.8,123.7c-61.5,78-75.6,100.9-75.6,100.9s249,44.9,219.1,238.8
	c-29.9,193.8-193.8,392.4-193.8,392.4s38.6,43.3,22.1,127.6c-16.5,84.3-96.1,181.2-133.1,212c-37,30.7-63,31.5-63,31.5
	s-15.8,37-25.2,55.9s-9.5,18.9-9.5,18.9l2.4,410.5L3901.1,1055.9"/>
<path class="st4" d="M3901.1,1055.9c0,0-56-23.3-122.8-72.4c139.1-51.8,313-125.6,436.5-219.1c119.7-90.7,251.5-150.7,350.6-184.6
	l2.4,409.1L3901.1,1055.9"/>
<path class="st5" d="M3526.3-51.8c-21.9-166.9-48-401.9,2.9-493.5c63-113.5,209.6-93,209.6-93s69.4-312,446-291.6
	c376.6,20.5,444.4,349.9,444.4,349.9s33.9-89.8,93-156.8c59.1-67,174.9-68.6,174.9-68.6s-78,47.3-121.3,111.9
	c-43.3,64.6-63.8,141.1-65.4,132.4c-1.6-8.7,61.5-81.2,124.5-122.1c63-41,120.6-40.2,120.6-40.2s-69.3,45.7-130.8,123.7
	c-61.5,78-75.6,100.9-75.6,100.9s249,44.9,219.1,238.8c-29.9,193.8-193.8,392.4-193.8,392.4s-54.3-81.1-137.8-81.1
	c-83.5,0-178.9,141-178.9,141s-26.8-37.8-37.8-94.6c-11-56.7,33.1-222.2,33.1-222.2s-264.8-11-332.5-45.7
	c-67.8-34.7-55.2-163.9-55.2-163.9s-224.6,56.7-231.7,96.1c-7.1,39.4,11,115.1,11,115.1s-0.8,0-31.5-32.3
	c-30.7-32.3-88.3-159.9-88.3-159.9s-0.8,29.2,0.8,100.1c1.6,70.9,10.3,100.9,12.6,114.3c2.4,13.4-5.5-6.3-41-91.4
	c-35.4-85.1-69.3-166.3-69.3-166.3s-15,104.8-48.9,193.8C3565.7-129.7,3545.7-88.7,3526.3-51.8"/>
<path class="st5" d="M3896.5,1053.9c-33.2-15-236.9-113.7-312.1-313.1c-28.2-74.7-39.9-161.4-44.1-249.1
	c76.3-24.1,195.2-49.9,334.1-19.6c209.6,45.7,236.4,170.2,236.4,170.2s65.4,7.1,162.3-40.2c96.9-47.3,167-164.7,167-164.7
	s70.8,60.6,159.9,66.2c0,0-15.8,37-25.2,55.9s-9.5,18.9-9.5,18.9s-219,375.9-460.1,438.9C4016.3,1040.6,3947.6,1050.6,3896.5,1053.9
	z M3665.7,648.6c22.1,0,126.9-4.7,197.8-13.4c70.9-8.7,78.8-15,78.8-15s-46.5,100.1-148.9,101.6
	C3690.9,723.4,3665.7,648.6,3665.7,648.6"/>
</svg>
