<?xml version="1.0" encoding="utf-8"?>
<!-- Generator: Adobe Illustrator 19.0.0, SVG Export Plug-In . SVG Version: 6.00 Build 0)  -->
<svg version="1.1" id="Layer_1" xmlns="http://www.w3.org/2000/svg" xmlns:xlink="http://www.w3.org/1999/xlink" x="0px" y="0px"
	 viewBox="264 -567.3 535.2 675.4" style="enable-background:new 264 -567.3 535.2 675.4;" xml:space="preserve">
<style type="text/css">
	.st0{fill:#9DD2F0;}
	.st1{fill:#0092B2;}
	.st2{fill:#002A42;}
	.st3{fill:#006A81;}
	.st4{fill:#00ACD2;}
	.st5{fill:#FCFFFF;}
	.st6{fill:#005784;}
</style>
<path class="st0" d="M531.6-138.1c147.7,0,267.6,50,267.6,111.6S679.3,85.2,531.6,85.2C383.9,85.2,264,35.2,264-26.4
	C264-88.1,383.9-138.1,531.6-138.1"/>
<path class="st1" d="M432.1-467.8c0,0-57.6,43.5-83.7,95.4c-26.2,51.9,167,126.1,158.5,62.3C498.3-374.1,432.1-467.8,432.1-467.8"/>
<path class="st2" d="M435.8-470.4c0,0,31.5,43.2,54.4,91.3c11,23,20,47.1,23,68.1c1.2,8.6-0.6,15.3-4.5,20.3
	c-7,9.3-22.1,13.2-41.2,11.5c-16.3-1.5-35.5-6.8-54-14.6c-26.8-11.3-52-27.7-64.4-44.7c-9-12.3-11.7-24.9-5.8-36.5
	c10-19.4,24.2-37.6,38.3-52.8c24.2-26.1,47.9-43.6,47.9-43.6c1-0.7,2.2-1,3.4-0.8C434-472.1,435.1-471.4,435.8-470.4z M431.1-461.3
	c-7.3,6-24.5,20.8-41.9,40.5c-13.2,14.8-26.5,32.4-35.6,51.1c-3.8,7.8-1,16,5.2,24.1c11.6,15.3,35.1,29.7,59.8,39.8
	c14.2,5.8,28.9,10.2,42.1,12.4c10.6,1.7,20.2,2.1,27.6,0.4c4.4-1,8-2.6,10.2-5.5c2-2.6,2.7-6.2,2.1-10.7c-2.5-20-10.8-42.9-20.8-65
	C462-413.4,438.8-449.6,431.1-461.3"/>
<path class="st3" d="M350.5-376.4c0,0,89-24,103.9-24.7c14.8-0.6,55.7,105.7,55.7,105.7l-42.9-2.5l-99.4-56.6L350.5-376.4"/>
<path class="st2" d="M348.8-382.9c0,0,35.8-7.9,65.9-14.5c4.9-1.1,9.7-2.2,14.1-3.3c5.3-1.3,10.1-2.6,14.2-3.5c5-1.2,9-1.9,11.2-2.1
	c2.7-0.2,6.4,1.3,10.2,5.1c4.9,4.9,11,14.1,17.2,25.3c2.7,4.8,5.3,10,7.9,15.3c14.2,29.3,26.9,62.8,26.9,62.8
	c0.8,2.2,0.5,4.6-0.9,6.5s-3.6,2.9-5.9,2.8l-42.9-2.5c-1.1-0.1-2.1-0.3-3-0.9l-99.3-56.8c-0.8-0.4-1.4-1-1.9-1.7l-17.2-21.9
	c-1.4-1.8-1.8-4.1-1.1-6.2C344.9-380.6,346.6-382.2,348.8-382.9z M454.1-396c-4.9,0.2-16.6,1.9-30.2,5.1c-6.9,1.6-14.3,3.7-21.6,5.8
	c-15.7,4.4-31.1,9.1-40.6,12.1l10.5,13.3l96.9,55.2l30.6,1.8c-5.2-12.8-14.8-36-24.3-56.5c-6.3-13.6-12.4-26-17.7-32.9
	c-0.9-1.2-1.7-2.2-2.6-2.9C454.8-395.4,454.2-395.9,454.1-396"/>
<path class="st4" d="M434.6-461.4c0,0-8.2-38.4,0.3-54.9c8.5-16.5,62.4-12.6,99.5-12c37.1,0.5,131.5-27.4,135,8.5
	c3.4,34-5.8,41.5-5.8,41.5L434.6-461.4"/>
<path class="st2" d="M428.1-460c0,0-3.4-17.7-2.9-34.6c0.2-9.2,1.6-18,5-24.2c1.8-3.3,4.8-6.1,9.1-8.2c5.6-2.8,13.4-4.5,22.7-5.4
	c21.2-2.1,49.9-0.1,72.5,0.6c8.7,0.2,20.7-1.1,33.9-3c27.7-4.1,60.6-10.3,81.6-6.9c14.5,2.3,23.6,9.2,25.1,21.4
	c1.4,11.8,1.3,20.5,0.5,27c-1.9,15.9-7.9,19.9-7.9,19.9c-1,0.8-2.3,1.3-3.5,1.4c0,0-30.2,2.5-68.7,5.4
	c-67.4,5.2-160.3,11.8-160.3,11.8C431.7-454.5,428.8-456.8,428.1-460z M439.9-468.4c21.3-1.6,97.1-7.3,154.5-11.4
	c31.6-2.3,57.7-4,66-4.6c1-1.9,2.7-6.1,3.5-14.4c0.5-5.3,0.6-12,0-20.4c-0.4-5.6-4.1-8.9-9.6-11c-5.3-2-12.1-3-19.7-3.3
	c-17.7-0.7-39.7,1.9-59.6,4.5c-15.8,2.1-30.4,4.3-40.6,4.2c-22.3,0-50.6-1.1-71.3,1.7c-6.5,0.9-12.3,2.2-16.7,4.1
	c-3.2,1.3-5.6,2.9-6.7,5.2c-2.4,5-2.9,12.1-2.7,19.3C437-484.7,438.7-474.5,439.9-468.4"/>
<path class="st5" d="M506.2-296.6c0,0-113.4-69.8-156-79.9c-21.4-5-6.9,268.9-6.3,297.9c0.6,29,146.6,155.1,166.7,123.6
	C530.8,13.6,506.2-296.6,506.2-296.6"/>
<path class="st2" d="M512.8-297.1c0,0,10.7,138.6,11.8,240.1c0.4,34-0.3,63.8-2.9,83.1c-1.4,10.7-3.5,18.4-6.1,22.3
	c-4.1,6.4-11.7,9-22.1,7.2C477.8,52.7,454,39,429.7,21c-30.3-22.5-61.4-51.6-78.2-72.9c-8.8-11.1-13.7-20.7-13.8-26.6
	c-0.2-8.2-1.8-36.3-3.1-72.1c-0.1-3.3-0.3-6.7-0.3-10.1c-0.6-28.3-0.2-60.5-0.2-91.2c0-24.4-0.2-47.8,0.5-67.7
	c0.9-26.9,3-47.5,6.7-55.6c2.6-5.8,6.6-7.2,10.2-6.4c15.6,3.5,40.4,14.7,65.9,27.7c45.2,23,92.4,51.6,92.4,51.6
	C511.5-301.1,512.7-299.2,512.8-297.1z M350.8-371c-0.5,1.1-1.4,3.1-1.8,4.9c-4.6,17.9-6.5,60.1-5.8,106.8
	c0.5,29.9,2.5,61.6,3.9,90.1c0.3,6.2,0.5,12.2,0.8,18c1.3,35.9,2.3,64,2.4,72.3c0,1.4,0.6,3,1.6,5c1.9,4,5.1,8.9,9.4,14.3
	c16.2,20.8,46.4,49,75.8,70.8c18.8,13.9,37.2,25.3,51.3,30.2c5,1.8,9.4,2.7,12.9,2.4c1.9-0.2,3.4-0.7,4.4-2.1c1.9-3,3.1-9,4.2-17.3
	c2.4-18.8,3-48.1,2.5-81.3c-1.3-91.8-10.6-214.2-12.3-235.8c-10.8-6.7-50-30.8-87.9-50.9C388.6-356,365.8-366.9,350.8-371"/>
<path class="st4" d="M667.1-484.2c-45.1,3.7-235,16.5-235,16.5c15.3,65.4,71.1,173.3,71.1,173.3l220.1-28.4c0,0,12.7,5.2-28.5-66.3
	C676.1-421.3,667.1-484.2,667.1-484.2"/>
<path class="st2" d="M673.7-485.2c0,0,3.9,29,12.1,57.5c3.7,13,8.3,25.8,13.9,35.8c21,37,27.9,54,29.8,61.7c1.6,6.5,0,9.2-1,10.3
	c-1.6,1.9-3.6,2.2-5.1,2.1c-3,0.3-18.1,2.3-39.1,5.2c-25.7,3.5-60.2,9-92.3,13.4c-6,0.8-11.9,1.6-17.6,2.3
	c-39.1,4.8-70.6,8.1-70.6,8.1c-2.3,0.3-4.6-0.9-5.7-3c0,0-10.4-21.7-24.1-51.1c-7.3-15.6-15.6-33.4-23.3-51.5
	c-8.2-19.4-16.1-39-21.3-56.8c-1.5-5.2-2.6-10.2-3.6-14.9c-0.4-1.8,0-3.7,1.1-5.2c1.1-1.5,2.8-2.4,4.7-2.6c0,0,30.9-0.5,70.6-3
	c58.9-3.7,137.4-11.2,164.3-13.7C670-491.1,673.2-488.7,673.7-485.2z M722.6-327.8C722.7-327.8,722.7-327.8,722.6-327.8
	C722.7-327.8,722.6-327.8,722.6-327.8z M720-326.5c-1.1,1-1.7,2.4-1.6,4c0.2,2.6,2.3,4.7,5,4.7l1.8-9.7c0,0-0.2,0-0.3-0.1
	c-0.3-0.1-1-0.2-1.8-0.1c-0.6,0.2-1.3,0.4-1.9,1c-0.3,0.3-1,1.6-1,1.6S720.1-325.7,720-326.5z M719.8-327.4c0-0.1-0.1-0.2-0.1-0.3
	c-1.9-7.4-9.1-23.4-29.8-58.5c-6.2-10.5-11.5-24.2-15.7-37.9c-6.6-21.3-10.8-42.8-12.6-53c-31.3,1.9-103.6,5.1-158.6,9.2
	c-27.9,2.1-51.3,4.5-62.8,5.7c1,3.5,2.1,7.1,3.2,10.7c6.6,21.9,15.5,46.9,25,70c5,12.1,9.9,23.8,14.8,34.3
	c10.2,22.1,19.4,39.4,23.2,46.6c9.4-1.4,35.5-5.3,66.5-9.5c5.7-0.8,11.6-1.5,17.6-2.3c32.1-3.9,66.8-7.4,92.6-10.5
	C700.7-324.9,714.1-326.7,719.8-327.4"/>
<path class="st6" d="M547.9-418.6c0,0-19,3.9-8.7,21.5c10.3,17.6,61.4,51.8,89.8,18.2c8.2-9.7-2.4-25.7-7-23.9
	C617.4-401,547.9-418.6,547.9-418.6"/>
<path class="st2" d="M620.9-407.8c1.7-0.4,3.5-0.3,5.5,0.6c2.7,1.4,6.1,4.9,8.1,9.6c2.9,6.6,3.4,15.2-2.1,21.5
	c-11.8,13.5-26.8,16.8-41.5,14.6c-15.3-2.3-30.2-10.8-41-19.4c-6.3-5.1-11.3-10.2-14-14.4c-5.1-7.3-4.8-12.9-3.5-17.2
	c2.8-9.2,14.2-12.6,14.2-12.6c1-0.2,2-0.2,3,0.1c0,0,23.4,6.5,43.9,11.5c9.2,2.3,17.8,4.3,23.3,5.2
	C618.5-408,620.5-407.8,620.9-407.8z M622.2-397.7c-0.5,0.1-1.1,0.1-1.9,0.1c-2.6,0-7.8-0.8-14.4-1.9c-19.9-3.5-52.7-11-58.7-12.4
	c-1,0.2-2.3,0.5-3.4,1.3c-0.8,0.5-1.9,1-2.4,2c-1.1,2.2-1.1,5.3,1,9.7c2.1,3.8,6.1,8.6,11.6,13.1c9.8,8.1,23.9,15.3,37.9,17
	c12.1,1.5,24.4-1.6,33.6-12.9c1.8-2.2,2-4.9,1.6-7.4c-0.4-2.5-1.5-4.8-2.8-6.6C623.7-396.8,622.5-397.1,622.2-397.7"/>
<path class="st6" d="M552.1-436.1c0,0-8.6,31.1-5,35s33.1,39.6,71.2,17.5c3.7-2.2,4.3-30.8,4.3-30.8L552.1-436.1"/>
<path class="st2" d="M554-442.4l70.1,22.9c2.3,0.7,3.8,2.8,3.7,5.2c0,0-0.6,16.6-2.5,25.9c-0.6,2.7-1.3,4.9-2,6.2
	c-0.8,1.4-1.7,2.3-2.6,2.8c-15.9,8.9-30.3,8.7-42.3,5c-19-6-31.9-21.3-34.3-23.8c-1.4-1.3-2.3-5.1-2.1-10.2
	c0.1-3.5,0.6-7.7,1.1-11.9c1.1-8.9,2.6-17.4,2.6-17.4c0.5-1.7,1.6-3.2,3.2-4C550.4-442.7,552.3-442.9,554-442.4z M550.5-403.5
	c3,3.3,14.2,16.1,30.4,20.9c9.8,2.9,21.5,2.6,34.1-4.7c0.1-0.2,0.1-0.3,0.2-0.5c1.5-5.2,1.9-16.6,2-22.7L556.1-428
	c-1,2.9-2.2,6.6-3.2,10.3c-1.1,4.2-2.1,8.4-2.4,11.6C550.4-405.1,550.5-403.9,550.5-403.5"/>
<path class="st2" d="M561.4-415.8c0.5-2.2,2.6-3.6,4.8-3.1c2.2,0.5,3.6,2.6,3.1,4.8l-5.5,26c-0.5,2.2-2.6,3.6-4.8,3.1
	c-2.2-0.5-3.6-2.6-3.1-4.8L561.4-415.8"/>
<path class="st2" d="M580.3-406c0.3-2.2,2.3-3.8,4.5-3.5c2.2,0.3,3.8,2.3,3.5,4.5l-3.5,27.3c-0.3,2.2-2.3,3.8-4.5,3.5
	s-3.8-2.3-3.5-4.5L580.3-406"/>
<path class="st2" d="M601.4-401.1c0-2.3,1.8-4,4-4.1c2.3,0,4.1,1.8,4.1,4l0.1,22.9c0,2.3-1.8,4-4,4.1c-2.3,0-4-1.8-4.1-4
	L601.4-401.1"/>
<path class="st5" d="M730.8-4.1c-18.7,15.5-228.4,54.4-228.4,54.4s-3.1-289.1-3.1-347.6c0-11.9,225.8-29.6,225.8-29.6
	S748.1-18.4,730.8-4.1"/>
<path class="st2" d="M733.8-0.4C727.5,5,699.6,13.7,665,22.4c-25.3,6.3-54.1,12.9-80.4,18.5c-44.1,9.3-80.9,15.9-80.9,15.9
	c-1.9,0.3-3.9-0.2-5.3-1.4c-1.5-1.2-2.4-3.1-2.4-5c0,0-0.8-110.4-1.3-208.6c-0.3-60.7-0.6-116.8-0.5-139.1c0-2,1.5-5.4,6.7-7.6
	c6.6-2.7,21.9-5.6,41.6-8.5c65.7-9.7,182.3-19.8,182.3-19.8c1.7-0.1,3.3,0.4,4.6,1.5c1.3,1.1,2.1,2.6,2.2,4.3c0,0,3.3,39.4,6.2,90.6
	c2.4,42.4,4.4,93,4.9,136.2c0.5,39.4-0.4,72.7-3.5,88.4C737.7-5.8,735.7-1.9,733.8-0.4z M504.5-294.9c0.1,18.9,0.5,57.3,1.1,101.9
	c1.1,89.8,2.8,204.7,3.2,235.5c13-2.5,41-8,73.1-14.4c26.2-5.3,55.1-11,80.4-16.8c22.3-5,41.7-9.9,54.1-14.1
	c5.4-1.8,9.3-3.4,11.2-4.8c-0.5-0.5,0.8-1.6,1.2-2.9c0.8-3.1,1.5-7.3,1.9-12.6c1.6-17.4,1.5-45.2,0.6-77.1
	c-1.3-43-4.3-93.4-6.8-135.7c-2.4-39-4.4-71.1-5.2-84.2c-19.2,1.4-78.2,5.8-130.2,11.5c-34.8,3.8-66.5,8.2-80.5,12.3
	C507.1-296,505.6-295.3,504.5-294.9"/>
<path class="st2" d="M334.2-162.4c-0.5-3.6,2-7,5.6-7.5c3.6-0.5,7,2,7.5,5.6c0,0,1.4,9.4,6.9,18.3c3.4,5.6,8.5,11,16.3,13.4
	c8.9,2.8,20.9,1.6,37.1-6.4c21.5-10.6,34.6-10.1,42.5-5.2c8.2,5.1,12.1,15.6,13.9,27.6c1.1,7.8,1.6,16.1,2.9,23.2
	c0.7,3.7,1.6,7,3.3,9.3c4.7,6.4,13.7,17.7,25.1,26c6.9,5,14.8,8.9,22.9,9.3c14,0.6,28-9.5,41.1-38.5c8.1-17.9,17-23.8,24.7-24.2
	c7.8-0.4,16,5.2,23.2,14c6.8,8.3,13.3,19.3,19.2,27.1c1.6,2.2,3.2,4,4.8,5.5c0.7,0.6,1.2,1.2,1.8,1.3c5.2,0.7,10.3-1.6,15.3-5.5
	c9.2-7.2,17.6-19.8,24.4-34.4c3.2-6.8,7.4-11.1,12.2-13.6c7.1-3.7,15.6-3.3,24.4,0.2c12.3,5,25.2,16.7,33.6,29.3
	c2,3.1,1.2,7.2-1.8,9.2c-3.1,2-7.2,1.2-9.2-1.8c-7-10.4-17.4-20.2-27.6-24.4c-4.7-1.9-9.4-2.7-13.2-0.7c-2.5,1.3-4.6,3.7-6.3,7.4
	c-7.7,16.8-17.7,31-28.2,39.3c-8.2,6.4-16.8,9.4-25.3,8.1c-3.7-0.5-8-3.2-12.2-7.9c-6.7-7.6-14.1-20.9-22.1-30.6
	c-2.4-2.9-4.8-5.5-7.4-7.3c-1.6-1.1-3.2-2-4.9-1.9c-1.6,0.1-3.2,1.1-4.9,2.9c-2.7,2.8-5.5,7.2-8.3,13.5
	c-16.5,36.6-36.1,47.1-53.7,46.3c-10.7-0.5-21.1-5.2-30.2-11.8c-12.7-9.2-22.9-21.8-28.1-28.9c-2.7-3.7-4.5-8.8-5.6-14.6
	c-1.4-7.3-1.9-15.8-3.1-23.8c-0.6-4.4-1.5-8.5-2.9-12c-1.1-2.6-2.5-4.8-4.7-6.2c-2.3-1.4-5.4-1.8-9.4-1.3c-5.3,0.7-12,2.9-20.3,7.1
	c-20.5,10.1-35.7,10.7-47,7.2c-11.1-3.5-18.6-11.1-23.5-19.1C335.8-150.3,334.2-162.4,334.2-162.4"/>
<path class="st4" d="M501.6-299.4c23.8-11.8,223.6-27.4,223.6-27.4s11,147.1,12,242.9c-15.5-23-46.5-42.8-58.5-16.7
	c-12,26.1-29.5,46-46.6,43.6c-17.1-2.4-40.8-84.8-66.7-27.5c-14.6,32.4-31.2,42.8-46.8,42.5c-5.9-0.2-11.7-1.8-17.1-4.5
	c-0.9-89.7-2.1-214.5-2.1-250.7C499.3-297.9,500.1-298.7,501.6-299.4"/>
<path class="st2" d="M498.7-305.4c8.1-3.8,35.5-7.9,68.7-11.5c35.7-3.8,78.4-7.1,110.3-9.5c6.9-0.5,13.2-1,18.9-1.5
	c17.3-1.5,28.3-2.7,28.3-2.7c1-0.1,2,0.3,2.8,0.9c0.8,0.7,1.3,1.6,1.3,2.6c0,0,6.5,55.8,10.4,121.3c2.4,40.7,3.2,85,3.3,121.8
	c0,2.4-1.6,4.6-3.9,5.3c-2.3,0.7-4.8-0.2-6.2-2.2c-7.7-11.8-19.7-22.8-30.9-26.2c-7.5-2.3-14.5-0.4-18.7,8.4
	c-6.6,14.2-14.8,26.6-23.6,34.9c-8.9,8.4-18.6,12.7-28,11.4c-2.3-0.3-4.6-1.5-7-3.4c-2.9-2.3-5.9-6-9-10.2
	c-7.4-10.3-15.6-24.9-24.4-31.4c-2.4-1.8-4.7-2.9-7.2-2.4c-2.1,0.4-4.1,1.8-6.2,4.3c-2.6,2.9-5,7.2-7.6,13
	c-7.4,16.7-15.5,27.8-23.6,34.9c-9.3,8.1-18.8,11-27.9,10.8c-3.4-0.1-6.8-0.6-10.1-1.5c-3.2-0.8-6.3-2-9.3-3.5
	c-1.8-0.9-3-2.7-3.1-4.8c-0.8-54.8-1.8-122.7-2.5-175.5c-0.5-33.7-0.8-61.2-0.8-75.3c0-1.4,0.3-2.8,1.2-4.2
	C494.6-302.6,496.1-304.1,498.7-305.4z M505.9-294.1c-0.1,18.6,0,54.9,0.2,97.1c0.2,46.9,0.5,101.2,0.7,147c1.4,0.6,2.9,1.1,4.4,1.5
	c2.4,0.7,5,1.1,7.5,1.2c6.8,0.2,13.9-2.1,20.9-8.1c7.3-6.3,14.4-16.3,21.2-31.1c8-17.5,16.6-23.2,24.1-23.1c4.2,0,8.4,1.8,12.4,4.8
	c5.7,4.4,11.3,11.8,16.5,19.5c4.8,7.1,9.4,14.4,13.6,19.2c1.9,2.3,3.6,4.1,5.3,4.4c6.9,1,13.7-2.7,20.2-8.8
	c8.1-7.6,15.4-19.1,21.3-32.1c3.1-6.8,7.4-11,12.2-13.2c5.4-2.5,11.6-2.6,18.1-0.8c9,2.5,18.5,9,26.7,17.1
	c-0.3-10.5-0.8-21.5-1.3-32.7c-0.8-17.9-1.9-36.3-2.8-54.3c-0.4-7.9-0.8-15.6-1.1-23.3c-2.2-53.4-4-99.6-4.5-112.8
	c-4.1,0.2-11.1,0.6-20.3,1.4c-4.8,0.4-10.3,0.9-16.1,1.5c-26.2,2.6-61.4,6.5-94,10.7C552.1-304.2,517-298.7,505.9-294.1z
	 M505.9-297.2C505.9-297.2,505.9-297.2,505.9-297.2C505.9-297.2,505.9-297.2,505.9-297.2"/>
<path class="st4" d="M501.6-299.4c-1.5,0.8-2.3,1.5-2.3,2.2c0,36.2,1.2,161,2.1,250.7c-16.6-8.1-30.4-24.9-36.7-33.5
	c-13.7-18.9,6.9-83.1-54.3-52.9s-69.8-30.3-69.8-30.3c-3-89.9-5.1-216.6,9.5-213.2C387.7-367.7,479.9-312.6,501.6-299.4"/>
<path class="st2" d="M505.8-294.3c-0.3,22.1-0.8,69.6-1.1,122.4c-0.1,20.5-0.2,41.8-0.2,62.7c0,21.7,0.1,43.1,0.2,62.7
	c0,1.1-0.5,2.1-1.5,2.7s-2.1,0.6-3.1,0.2c-6.2-3-12-7.2-17.2-11.7c-9.2-8-16.6-17.1-20.7-22.7c-4.9-6.7-6-18.7-7.4-30.7
	c-1.2-10.2-2.6-20.4-8.7-25.4c-5.9-4.9-15.8-4.1-33.7,5c-21.3,10.8-36.8,10.9-48,6.6c-23.9-9.3-28.7-39.8-28.7-39.8
	c0-0.2,0-0.4,0-0.6c-0.8-21.7-2-45.6-2.2-69.3c-0.2-29.6,1.1-58.9,2.3-83.3c0.4-7.4,0.8-14.4,1.3-20.8c1.3-20.1,3.4-34.6,6.7-39.9
	c2.1-3.3,4.7-4.2,7.4-3.6c15.1,3.3,39,13.8,63.9,26.1c37.4,18.5,76.8,41.1,90.1,48.9c2.1,1.3,3.3,3.5,3.2,6
	C508.2-297.2,507.2-295.5,505.8-294.3z M492.7-297.2c-16.3-10.2-49.9-30.9-82.2-48.3c-23.3-12.6-45.9-23.5-60.5-27.3
	c-0.3,0.4-0.7,1-1,1.6c-0.6,1.5-1.3,3.3-1.8,5.5c-1.7,7.1-3.2,17.5-3.9,30.3c-0.4,6.3-0.5,13.3-0.6,20.6
	c-0.2,22.3,0.8,48.6,1.7,75.5c0.2,5,0.3,10.1,0.4,15.1c0.4,20.6,0.7,41.3,1.2,60.3c0.4,2.9,4.2,25,21.9,32.4
	c9.4,3.9,22.5,3.5,40.8-5.3c22.4-10.8,35-9.5,42.2-3.2c6,5.2,8.6,14.2,10,24.2c1.7,12.5,1.4,26.5,6.6,33.7c3.4,4.7,8.9,11.8,16,18.5
	c4.4,4.2,9.4,8.3,14.8,11.5c-0.4-21.9-0.8-45.8-1.3-69.8C495.3-195.3,493.1-270.3,492.7-297.2"/>
<path class="st6" d="M571-448.5c-7.7,1.6-18.4,5.5-19,13.3c-0.7,8.6,9.6,22.6,35.2,30.6c48,15.2,37.4-23.7,24.8-32.9
	C594.8-449.9,579.7-450.3,571-448.5"/>
<path class="st2" d="M570.2-452.3c5.6-1.2,13.8-1.6,23.5,1.1c6.4,1.8,13.4,5,20.8,10.2c5.3,3.8,10.5,12.1,12.2,20.3
	c1.3,6.3,0.5,12.5-3,17.1c-4.9,6.5-16.2,10.5-38.1,3.9c-12.6-4-21.8-9.4-27.8-14.9c-8.1-7.4-11-15.3-10.3-21
	c0.5-4.7,3.2-8.4,7.4-11.1C559.2-449.7,565.2-451.4,570.2-452.3L570.2-452.3z M571.7-444.8c-3.3,0.8-7.2,2.1-10.4,4
	c-2.5,1.5-4.7,3.3-4.8,6l0,0c-0.2,3.6,2.6,8.1,7.9,12.7c5.4,4.7,13.3,9.2,24.2,12.6c7.8,2.5,13.9,3.5,18.7,3.4
	c4.3-0.2,7.1-1.3,8.8-3.3c2-2.5,2.1-6,1.5-9.5c-1.1-6-4.5-12.1-8.2-15c-6.3-4.8-12.4-7.7-17.9-9.4
	C583.4-445.8,576.5-445.7,571.7-444.8"/>
<path class="st5" d="M543.2-175.9c-0.9,0.1-1.8-0.2-2.5-0.8c-0.7-0.6-1.1-1.5-1.1-2.4c-0.2-20.7-0.4-41.4-0.6-62.1
	c0-1.6,1.2-3,2.8-3.2c3.5-0.4,7.1-0.9,10.6-1.3c1.6-0.2,3.1,0.9,3.5,2.4c1.5,6.7,3.1,13.4,4.6,20.2c0.3,1.5,1.7,2.5,3.2,2.5
	c1.5,0,2.8-1.1,3.1-2.6c1.3-7.4,2.6-14.9,3.8-22.4c0.2-1.4,1.3-2.4,2.7-2.6c3.3-0.4,6.6-0.8,9.8-1.2c0.9-0.1,1.8,0.2,2.4,0.7
	c0.7,0.6,1.1,1.4,1.1,2.3c1,20.4,2.1,40.9,3.1,61.3c0.1,1.6-1.1,3.1-2.7,3.3c-1.5,0.2-3,0.4-4.5,0.6c-0.9,0.1-1.8-0.2-2.4-0.7
	c-0.7-0.6-1.1-1.4-1.1-2.3c-0.2-3.4-0.4-6.8-0.6-10.1c-0.1-1.6-1.4-2.9-3.1-3c-1.6-0.1-3.1,1.1-3.3,2.7c-0.6,4.2-1.2,8.4-1.8,12.6
	c-0.2,1.4-1.3,2.5-2.7,2.7s-2.9,0.4-4.4,0.6c-1.6,0.2-3.2-0.8-3.5-2.5c-0.9-4.2-1.8-8.3-2.7-12.4c-0.3-1.6-1.8-2.7-3.5-2.5
	c-1.6,0.2-2.8,1.6-2.8,3.2c0,4.4,0,8.7,0.1,13c0,1.6-1.2,3-2.7,3.2C546.4-176.3,544.8-176.1,543.2-175.9z M603.5-183.9
	c-0.9,0.1-1.8-0.2-2.5-0.7c-0.7-0.6-1.1-1.4-1.1-2.3c-0.7-20.4-1.4-40.8-2.1-61.3c0-1.6,1.1-3.1,2.8-3.3c2.9-0.3,5.8-0.7,8.7-1.1
	c0.9-0.1,1.8,0.2,2.4,0.7c0.7,0.6,1.1,1.4,1.1,2.3c0.7,20.4,1.5,40.8,2.2,61.1c0.1,1.6-1.1,3.1-2.7,3.3
	C609.3-184.7,606.4-184.3,603.5-183.9z M628.8-187.2c-0.9,0.1-1.8-0.2-2.5-0.7c-0.7-0.6-1.1-1.4-1.1-2.3c-0.8-20.3-1.5-40.6-2.3-61
	c-0.1-1.6,1.1-3.1,2.8-3.3c2.9-0.3,5.7-0.7,8.6-1.1c0.9-0.1,1.8,0.2,2.4,0.7c0.7,0.6,1.1,1.4,1.1,2.3c0.6,16.7,1.3,33.5,2,50.2
	c0,0.9,0.5,1.7,1.1,2.3c0.7,0.6,1.6,0.8,2.5,0.7c2.9-0.4,5.8-0.8,8.7-1.1c0.9-0.1,1.8,0.2,2.5,0.7c0.7,0.6,1.1,1.4,1.1,2.3
	c0,1.2,0.1,2.4,0.2,3.7c0.1,1.6-1.1,3.1-2.7,3.3C645-189.4,636.9-188.3,628.8-187.2z M665.9-192.2c-0.9,0.1-1.8-0.2-2.5-0.7
	c-0.7-0.6-1.1-1.4-1.1-2.3c-0.8-20.2-1.7-40.3-2.5-60.5c-0.1-1.7,1.1-3.1,2.8-3.3c2.8-0.3,5.6-0.7,8.5-1c0.9-0.1,1.8,0.2,2.4,0.7
	c0.7,0.6,1.1,1.4,1.1,2.3c0.1,2.4,0.2,4.8,0.3,7.3c0.1,1.5,1.2,2.8,2.7,3c1.5,0.2,3-0.6,3.5-2.1c1.3-3.7,2.6-7.4,3.9-11.1
	c0.4-1.1,1.4-1.9,2.6-2.1c2.4-0.3,4.9-0.6,7.4-0.9c1.1-0.2,2.2,0.3,2.9,1.1c0.7,0.8,0.9,2,0.5,3.1c-3,8.5-6,17-8.9,25.5
	c-0.3,0.7-0.2,1.6,0.1,2.3c4.2,10,8.4,19.9,12.6,29.9c0.4,0.9,0.3,1.9-0.2,2.8s-1.4,1.5-2.3,1.6c-2.8,0.4-5.6,0.8-8.5,1.1
	c-1.5,0.2-2.9-0.6-3.4-2c-3.1-7.8-6.1-15.6-9.1-23.4c-0.2-0.5-0.6-0.8-1.1-0.8s-1,0.2-1.2,0.7c0,0.1-0.1,0.2-0.2,0.3
	c0,0.1,0,0.2,0,0.2c0.3,8,0.7,16,1,23.9c0.1,1.6-1.1,3.1-2.7,3.3C671.7-192.9,668.8-192.6,665.9-192.2"/>
</svg>
