<?xml version="1.0" encoding="utf-8"?>
<!-- Generator: Adobe Illustrator 19.0.0, SVG Export Plug-In . SVG Version: 6.00 Build 0)  -->
<svg version="1.1" id="Layer_1" xmlns="http://www.w3.org/2000/svg" xmlns:xlink="http://www.w3.org/1999/xlink" x="0px" y="0px"
	 viewBox="1920 -2120 4187.1 2975.3" style="enable-background:new 1920 -2120 4187.1 2975.3;" xml:space="preserve">
<style type="text/css">
	.st0{fill:#DD8C3E;}
	.st1{clip-path:url(#SVGID_2_);}
	.st2{clip-path:url(#SVGID_4_);}
	.st3{fill:#FAC6B6;}
	.st4{clip-path:url(#SVGID_6_);}
	.st5{clip-path:url(#SVGID_8_);}
	.st6{fill:#FFDDCB;}
	.st7{clip-path:url(#SVGID_10_);}
	.st8{clip-path:url(#SVGID_12_);}
	.st9{clip-path:url(#SVGID_14_);}
	.st10{clip-path:url(#SVGID_16_);}
	.st11{clip-path:url(#SVGID_18_);}
	.st12{clip-path:url(#SVGID_20_);}
	.st13{clip-path:url(#SVGID_22_);}
	.st14{clip-path:url(#SVGID_24_);}
	.st15{fill:#F0F0F0;}
	.st16{clip-path:url(#SVGID_26_);}
	.st17{clip-path:url(#SVGID_28_);}
	.st18{fill:#EBEBEB;}
	.st19{fill:#00193B;}
	.st20{clip-path:url(#SVGID_30_);}
	.st21{clip-path:url(#SVGID_32_);}
	.st22{fill:#FFFFFF;}
	.st23{clip-path:url(#SVGID_34_);}
	.st24{clip-path:url(#SVGID_36_);}
	.st25{clip-path:url(#SVGID_38_);}
	.st26{clip-path:url(#SVGID_40_);}
	.st27{clip-path:url(#SVGID_42_);}
	.st28{fill:#D1D1D1;}
	.st29{clip-path:url(#SVGID_44_);}
	.st30{clip-path:url(#SVGID_46_);}
	.st31{clip-path:url(#SVGID_48_);}
	.st32{clip-path:url(#SVGID_50_);}
	.st33{clip-path:url(#SVGID_52_);}
	.st34{clip-path:url(#SVGID_54_);}
	.st35{clip-path:url(#SVGID_56_);}
	.st36{clip-path:url(#SVGID_59_);}
	.st37{clip-path:url(#SVGID_60_);}
	.st38{clip-path:url(#SVGID_74_);}
	.st39{clip-path:url(#SVGID_75_);}
	.st40{clip-path:url(#SVGID_76_);}
	.st41{clip-path:url(#SVGID_77_);}
	.st42{clip-path:url(#SVGID_78_);}
	.st43{clip-path:url(#SVGID_79_);}
	.st44{clip-path:url(#SVGID_80_);}
	.st45{clip-path:url(#SVGID_81_);}
	.st46{clip-path:url(#SVGID_82_);}
	.st47{clip-path:url(#SVGID_83_);}
	.st48{clip-path:url(#SVGID_84_);}
	.st49{clip-path:url(#SVGID_85_);}
	.st50{clip-path:url(#SVGID_86_);fill:#FFDF26;}
	.st51{clip-path:url(#SVGID_86_);fill:#EBB718;}
	.st52{clip-path:url(#SVGID_86_);fill:#F09C04;}
	.st53{clip-path:url(#SVGID_86_);fill:#FFF459;}
	.st54{clip-path:url(#SVGID_86_);fill:none;}
	.st55{clip-path:url(#SVGID_86_);fill:#EE9E02;}
	.st56{clip-path:url(#SVGID_86_);fill:#F9ED43;}
	.st57{clip-path:url(#SVGID_86_);fill:#DD8C3E;}
	.st58{clip-path:url(#SVGID_86_);fill:#E7E7E7;}
	.st59{clip-path:url(#SVGID_86_);fill:#00193B;}
	.st60{fill:#2D2296;stroke:#BF2222;stroke-miterlimit:22.9256;}
	.st61{fill:none;}
	.st62{fill:#086324;}
	.st63{fill:#91C799;}
	.st64{fill:#6CE679;}
	.st65{clip-path:url(#SVGID_88_);}
	.st66{clip-path:url(#SVGID_90_);}
	.st67{clip-path:url(#SVGID_92_);}
	.st68{clip-path:url(#SVGID_94_);}
	.st69{clip-path:url(#SVGID_96_);}
	.st70{clip-path:url(#SVGID_98_);}
	.st71{clip-path:url(#SVGID_100_);}
	.st72{clip-path:url(#SVGID_102_);}
	.st73{clip-path:url(#SVGID_104_);}
	.st74{clip-path:url(#SVGID_106_);}
	.st75{clip-path:url(#SVGID_108_);}
	.st76{clip-path:url(#SVGID_110_);}
	.st77{clip-path:url(#SVGID_112_);}
	.st78{clip-path:url(#SVGID_114_);}
	.st79{clip-path:url(#SVGID_116_);}
	.st80{clip-path:url(#SVGID_118_);}
	.st81{clip-path:url(#SVGID_120_);}
	.st82{clip-path:url(#SVGID_122_);}
	.st83{clip-path:url(#SVGID_124_);}
	.st84{clip-path:url(#SVGID_126_);}
	.st85{clip-path:url(#SVGID_128_);}
	.st86{clip-path:url(#SVGID_130_);}
	.st87{clip-path:url(#SVGID_132_);}
	.st88{clip-path:url(#SVGID_134_);}
	.st89{clip-path:url(#SVGID_136_);}
	.st90{clip-path:url(#SVGID_138_);}
	.st91{clip-path:url(#SVGID_140_);}
	.st92{clip-path:url(#SVGID_142_);}
	.st93{clip-path:url(#SVGID_145_);}
	.st94{clip-path:url(#SVGID_146_);}
	.st95{clip-path:url(#SVGID_160_);}
	.st96{clip-path:url(#SVGID_161_);}
	.st97{clip-path:url(#SVGID_162_);}
	.st98{clip-path:url(#SVGID_163_);}
	.st99{clip-path:url(#SVGID_164_);}
	.st100{clip-path:url(#SVGID_165_);}
	.st101{clip-path:url(#SVGID_166_);}
	.st102{clip-path:url(#SVGID_167_);}
	.st103{clip-path:url(#SVGID_168_);}
	.st104{clip-path:url(#SVGID_169_);}
	.st105{clip-path:url(#SVGID_170_);}
	.st106{clip-path:url(#SVGID_171_);}
	.st107{clip-path:url(#SVGID_172_);fill:#FFDF26;}
	.st108{clip-path:url(#SVGID_172_);fill:#EBB718;}
	.st109{clip-path:url(#SVGID_172_);fill:#F09C04;}
	.st110{clip-path:url(#SVGID_172_);fill:#FFF459;}
	.st111{clip-path:url(#SVGID_172_);fill:none;}
	.st112{clip-path:url(#SVGID_172_);fill:#EE9E02;}
	.st113{clip-path:url(#SVGID_172_);fill:#F9ED43;}
	.st114{clip-path:url(#SVGID_172_);fill:#DD8C3E;}
	.st115{clip-path:url(#SVGID_172_);fill:#E7E7E7;}
	.st116{clip-path:url(#SVGID_172_);fill:#00193B;}
</style>
<path class="st0" d="M5312.8-686.7c-11.1,13.8-21.2,26.5-29.6,37.2c-33,41.9-161,154.1-235.5,158.5c-2.3,0.1-4.8,0.1-7.4,0
	c-1.6,0.1-3.3,0.2-5,0.2c-36.7,0-66.5-27.1-66.5-60.4c0-31.7,27-57.8,61.3-60.2c109.6-43.4,185-144.5,185-264.3
	c0-159.7-137.7-289.4-307.4-289.4c-169.7,0-307.4,129.7-307.4,289.4c0,10.6,0.6,21,1.8,31.2c2.8,6.4,4.3,13.5,4.3,20.9
	c0,30.7-26.4,55.7-59,55.7c-16.8,0-32-6.6-42.8-17.3c-27.4-24.7-25.6-92.6-23.5-121.7c2-28.2,6.1-61.4,14.9-88.6
	c27.7-84.9,99.6-167.6,173.1-215.7c44.1-28.8,146.3-76.1,146.3-76.1s-10.6-3.6-21.4-5.6c-2.5-0.5-5-0.9-7.5-1.4
	c-5.4-1.3-11.3-2.4-16.8-2.8c-51.4-7.8-110.6-11.3-172.4-4.1c-121.5,14.1-225.6,75.4-281.4,111.2c-9.6,10.4-23.8,17.1-39.6,17.1
	c-29,0-52.5-22.2-52.5-49.5c0-18.3,10.6-34.3,26.3-42.9c20.6-16,45.4-29.6,55.7-38.7c4.3-3.8,44.8-33.5,52.4-39.6
	c2.5-2-62.8,23.1-67.3,24.1c-1.2,0.3-2.3,0.5-3.4,0.7c-4.9,1.6-10.3,2.4-15.8,2.4c-26.4,0-47.9-19.5-47.9-43.6
	c0-3.1,0.4-6.2,1.1-9.2c1.2-6.3,4-12.8,8.8-19.2c43.3-57.4,236.4-53.4,242.4-60c2.8-3-5.4-10.7-10.7-13.3c-10.3-5-35.7-14.4-51.3-17
	c-2.9,0.6-5.9,0.9-9.1,0.9c-22.2,0-40.3-16.2-40.3-36.1c0-12.1,6.7-22.8,16.9-29.4c21.6-15.4,77.4-15.7,125.2-12.9
	c37.1,0.7,76.7,3.6,117.6,8.9c8.6,1.1,17.1,2.3,25.5,3.6c40.5,4.7,80.9,11,119,18.8c114.2,23.2,217.6,80.5,334.9,94.3
	c86.8,10.2,379.2-42,379.2-42l119.6,208.1l78.4,136.4c0.2,0.2-32.8,14-40.1,18.4c-44.7,117.4-124.7,237.8-236.2,344.3
	C5375-737.1,5344.3-710.8,5312.8-686.7"/>
<g>
	<defs>
		<rect id="SVGID_1_" x="4225" y="-1554" width="1454" height="1061"/>
	</defs>
	<clipPath id="SVGID_2_">
		<use xlink:href="#SVGID_1_"  style="overflow:visible;"/>
	</clipPath>
	<g class="st1">
		<g>
			<defs>
				<path id="SVGID_3_" d="M5309.8-686.7c-11.1,13.8-21.2,26.5-29.6,37.2c-33,41.9-161,154.1-235.5,158.5c-2.3,0.1-4.8,0.1-7.4,0
					c-1.6,0.1-3.3,0.2-5,0.2c-36.7,0-66.5-27.1-66.5-60.4c0-31.7,27-57.8,61.3-60.2c109.6-43.4,185-144.5,185-264.3
					c0-159.7-137.7-289.4-307.4-289.4c-169.7,0-307.4,129.7-307.4,289.4c0,10.6,0.6,21,1.8,31.2c2.8,6.4,4.3,13.5,4.3,20.9
					c0,30.7-26.4,55.7-59,55.7c-16.8,0-32-6.6-42.8-17.3c-27.4-24.7-25.6-92.6-23.5-121.7c2-28.2,6.1-61.4,14.9-88.6
					c27.7-84.9,99.6-167.6,173.1-215.7c44.1-28.8,146.3-76.1,146.3-76.1s-10.6-3.6-21.4-5.6c-2.5-0.5-5-0.9-7.5-1.4
					c-5.4-1.3-11.3-2.4-16.8-2.8c-51.4-7.8-110.6-11.3-172.4-4.1c-121.5,14.1-225.6,75.4-281.4,111.2c-9.6,10.4-23.8,17.1-39.6,17.1
					c-29,0-52.5-22.2-52.5-49.5c0-18.3,10.6-34.3,26.3-42.9c20.6-16,45.4-29.6,55.7-38.7c4.3-3.8,44.8-33.5,52.4-39.6
					c2.5-2-62.8,23.1-67.3,24.1c-1.2,0.3-2.3,0.5-3.4,0.7c-4.9,1.6-10.3,2.4-15.8,2.4c-26.4,0-47.9-19.5-47.9-43.6
					c0-3.1,0.4-6.2,1.1-9.2c1.2-6.3,4-12.8,8.8-19.2c43.3-57.4,236.4-53.4,242.4-60c2.8-3-5.4-10.7-10.7-13.3
					c-10.3-5-35.7-14.4-51.3-17c-2.9,0.6-5.9,0.9-9.1,0.9c-22.2,0-40.3-16.2-40.3-36.1c0-12.1,6.7-22.8,16.9-29.4
					c21.6-15.4,77.4-15.7,125.2-12.9c37.1,0.7,76.7,3.6,117.6,8.9c8.6,1.1,17.1,2.3,25.5,3.6c40.5,4.7,80.9,11,119,18.8
					c114.2,23.2,217.6,80.5,334.9,94.3c86.8,10.2,379.2-42,379.2-42l119.6,208.1l78.4,136.4c0.2,0.2-32.8,14-40.1,18.4
					c-44.7,117.4-124.7,237.8-236.2,344.3C5372.1-737.1,5341.3-710.8,5309.8-686.7z"/>
			</defs>
			<clipPath id="SVGID_4_">
				<use xlink:href="#SVGID_3_"  style="overflow:visible;"/>
			</clipPath>
			<g class="st2">
				<path class="st3" d="M4424.4-1380c-42.5,20.8-121.1,57-154.2,60c-20.9,1.9-44.3-18-44.3-42c0-3.1,2.2-19.8,7.9-25.6
					c37.2-37.4,102.7-41.5,174.7-50c25.1-3,46.8-1.5,74.2-9.2c18.4-5.2-55.6-41.1-77.3-35.7c-21.5,5.3-39.9-10.8-39.9-30.7
					c0-12.1,5.7-20.1,15.9-26.6c21.6-15.4,81.8-14.8,123.1-12.8c64.1,3.1,223.6,24,261.7,31.7c114.1,23.2,220.7,88.2,338,102.1
					c86.8,10.2,377.1-46.6,377.1-46.6l197.2,334.8c0.2,0.2-40.6,8.5-47.9,12.9c-44.7,117.4-121.8,240.9-233.3,347.4
					c-29.7,28.3-61.3,54.9-92.8,78.9c-11.1,13.9-24.3,30.4-32.8,41.1c-33,41.9-142.5,147.1-222,157c-2.3,0.3-10.6,0-15.8,0
					c-33.9,0.1-60.7-24.6-60.7-57.9c0-31.7,24.9-52.5,59.2-54.9c109.6-43.3,193.4-148.9,193.4-268.7
					c0-159.7-139.1-305.5-308.8-305.5s-324,135.3-324,295c0,10.6,1.9,31,3.1,41.3c2.8,6.4,3.4,13.8,3.4,21.2
					c0,30.7-21.1,50.6-53.6,50.6c-16.8,0-29.8-5.6-40.6-16.3c-27.4-24.7-24.3-89.5-22.2-118.5c2-28.2,6.6-59,15.4-86.2
					c27.7-84.9,99.5-165.2,173-213.3c44.1-28.8,143.9-76.8,143.9-76.8s11.7-4.9,16.7-6.5c25.5-8.4,48.9-18.3,77.3-23.8
					c33.4-6.4,109.7-9.8,109.7-9.8c-16.5-1.8-33.1-2.8-49.6-2.8c-14.1,0-28.4,0.6-42.5,2c-29.5,3-97.8,21.2-110.1,26.6
					c-11.4-5.5-151.1-22.5-224.2-12.2c-121,17.1-224.8,79.4-280.6,115.1c-9.6,10.4-20.5,17.6-36.3,17.6c-29,0-48.6-18.2-48.6-45.5
					c0-18.3,9.8-32.1,25.5-40.6c20.6-16,42.8-28.6,53-37.6c2.7-2.4,80.9-58.1,122.6-76.2c57.7-25,114.5-42,173.2-54
					c32.5-6.6,66.3-11.6,99.9-14.7c81.9-7.6,166.2-4.4,248,6.9c1.1-0.7,0.1-0.8,0.1-0.8c-59.6-10.3-119.8-15.9-179.9-16
					c-3.4,0-6.9-0.1-10.3,0c-60,1.8-119.7,8.9-182.9,20.7C4526.2-1425.8,4474-1404.3,4424.4-1380z M4491.3-1451.6
					c138.1-50.5,263.1-27.6,433.5-9C4781.8-1473.3,4673.1-1494.3,4491.3-1451.6"/>
			</g>
		</g>
		<g>
			<defs>
				<rect id="SVGID_5_" x="5000" y="-539" width="103" height="46"/>
			</defs>
			<clipPath id="SVGID_6_">
				<use xlink:href="#SVGID_5_"  style="overflow:visible;"/>
			</clipPath>
			<g class="st4">
				<g>
					<defs>
						<path id="SVGID_7_" d="M5309.8-686.7c-11.1,13.8-21.2,26.5-29.6,37.2c-33,41.9-161,154.1-235.5,158.5c-2.3,0.1-4.8,0.1-7.4,0
							c-1.6,0.1-3.3,0.2-5,0.2c-36.7,0-66.5-27.1-66.5-60.4c0-31.7,27-57.8,61.3-60.2c109.6-43.4,185-144.5,185-264.3
							c0-159.7-137.7-289.4-307.4-289.4c-169.7,0-307.4,129.7-307.4,289.4c0,10.6,0.6,21,1.8,31.2c2.8,6.4,4.3,13.5,4.3,20.9
							c0,30.7-26.4,55.7-59,55.7c-16.8,0-32-6.6-42.8-17.3c-27.4-24.7-25.6-92.6-23.5-121.7c2-28.2,6.1-61.4,14.9-88.6
							c27.7-84.9,99.6-167.6,173.1-215.7c44.1-28.8,146.3-76.1,146.3-76.1s-10.6-3.6-21.4-5.6c-2.5-0.5-5-0.9-7.5-1.4
							c-5.4-1.3-11.3-2.4-16.8-2.8c-51.4-7.8-110.6-11.3-172.4-4.1c-121.5,14.1-225.6,75.4-281.4,111.2
							c-9.6,10.4-23.8,17.1-39.6,17.1c-29,0-52.5-22.2-52.5-49.5c0-18.3,10.6-34.3,26.3-42.9c20.6-16,45.4-29.6,55.7-38.7
							c4.3-3.8,44.8-33.5,52.4-39.6c2.5-2-62.8,23.1-67.3,24.1c-1.2,0.3-2.3,0.5-3.4,0.7c-4.9,1.6-10.3,2.4-15.8,2.4
							c-26.4,0-47.9-19.5-47.9-43.6c0-3.1,0.4-6.2,1.1-9.2c1.2-6.3,4-12.8,8.8-19.2c43.3-57.4,236.4-53.4,242.4-60
							c2.8-3-5.4-10.7-10.7-13.3c-10.3-5-35.7-14.4-51.3-17c-2.9,0.6-5.9,0.9-9.1,0.9c-22.2,0-40.3-16.2-40.3-36.1
							c0-12.1,6.7-22.8,16.9-29.4c21.6-15.4,77.4-15.7,125.2-12.9c37.1,0.7,76.7,3.6,117.6,8.9c8.6,1.1,17.1,2.3,25.5,3.6
							c40.5,4.7,80.9,11,119,18.8c114.2,23.2,217.6,80.5,334.9,94.3c86.8,10.2,379.2-42,379.2-42l119.6,208.1l78.4,136.4
							c0.2,0.2-32.8,14-40.1,18.4c-44.7,117.4-124.7,237.8-236.2,344.3C5372.1-737.1,5341.3-710.8,5309.8-686.7z"/>
					</defs>
					<clipPath id="SVGID_8_">
						<use xlink:href="#SVGID_7_"  style="overflow:visible;"/>
					</clipPath>
					<g class="st5">
						<path class="st6" d="M5046.8-536.2c27.9-5.8,52.7-1.6,55.3,9.4c2.6,11-18.1,24.6-46,30.4c-27.9,5.8-52.7,1.6-55.3-9.4
							C4998.3-516.8,5018.9-530.4,5046.8-536.2"/>
					</g>
				</g>
				<g>
					<defs>
						<rect id="SVGID_9_" x="4499" y="-825" width="50" height="52"/>
					</defs>
					<clipPath id="SVGID_10_">
						<use xlink:href="#SVGID_9_"  style="overflow:visible;"/>
					</clipPath>
					<g class="st7">
						<g>
							<defs>
								<path id="SVGID_11_" d="M5309.8-686.7c-11.1,13.8-21.2,26.5-29.6,37.2c-33,41.9-161,154.1-235.5,158.5
									c-2.3,0.1-4.8,0.1-7.4,0c-1.6,0.1-3.3,0.2-5,0.2c-36.7,0-66.5-27.1-66.5-60.4c0-31.7,27-57.8,61.3-60.2
									c109.6-43.4,185-144.5,185-264.3c0-159.7-137.7-289.4-307.4-289.4c-169.7,0-307.4,129.7-307.4,289.4c0,10.6,0.6,21,1.8,31.2
									c2.8,6.4,4.3,13.5,4.3,20.9c0,30.7-26.4,55.7-59,55.7c-16.8,0-32-6.6-42.8-17.3c-27.4-24.7-25.6-92.6-23.5-121.7
									c2-28.2,6.1-61.4,14.9-88.6c27.7-84.9,99.6-167.6,173.1-215.7c44.1-28.8,146.3-76.1,146.3-76.1s-10.6-3.6-21.4-5.6
									c-2.5-0.5-5-0.9-7.5-1.4c-5.4-1.3-11.3-2.4-16.8-2.8c-51.4-7.8-110.6-11.3-172.4-4.1c-121.5,14.1-225.6,75.4-281.4,111.2
									c-9.6,10.4-23.8,17.1-39.6,17.1c-29,0-52.5-22.2-52.5-49.5c0-18.3,10.6-34.3,26.3-42.9c20.6-16,45.4-29.6,55.7-38.7
									c4.3-3.8,44.8-33.5,52.4-39.6c2.5-2-62.8,23.1-67.3,24.1c-1.2,0.3-2.3,0.5-3.4,0.7c-4.9,1.6-10.3,2.4-15.8,2.4
									c-26.4,0-47.9-19.5-47.9-43.6c0-3.1,0.4-6.2,1.1-9.2c1.2-6.3,4-12.8,8.8-19.2c43.3-57.4,236.4-53.4,242.4-60
									c2.8-3-5.4-10.7-10.7-13.3c-10.3-5-35.7-14.4-51.3-17c-2.9,0.6-5.9,0.9-9.1,0.9c-22.2,0-40.3-16.2-40.3-36.1
									c0-12.1,6.7-22.8,16.9-29.4c21.6-15.4,77.4-15.7,125.2-12.9c37.1,0.7,76.7,3.6,117.6,8.9c8.6,1.1,17.1,2.3,25.5,3.6
									c40.5,4.7,80.9,11,119,18.8c114.2,23.2,217.6,80.5,334.9,94.3c86.8,10.2,379.2-42,379.2-42l119.6,208.1l78.4,136.4
									c0.2,0.2-32.8,14-40.1,18.4c-44.7,117.4-124.7,237.8-236.2,344.3C5372.1-737.1,5341.3-710.8,5309.8-686.7z"/>
							</defs>
							<clipPath id="SVGID_12_">
								<use xlink:href="#SVGID_11_"  style="overflow:visible;"/>
							</clipPath>
							<g class="st8">
								<path class="st6" d="M4539.3-809.5c9.5,13.4,12.4,27.6,3.8,33.1c-8.6,5.5-26.6,2.1-36.2-11.3c-9.5-13.4-9.6-29.2-0.9-34.7
									C4514.6-827.9,4529.8-822.9,4539.3-809.5"/>
							</g>
						</g>
						<g>
							<defs>
								<rect id="SVGID_13_" x="4227" y="-1287" width="74" height="68"/>
							</defs>
							<clipPath id="SVGID_14_">
								<use xlink:href="#SVGID_13_"  style="overflow:visible;"/>
							</clipPath>
							<g class="st9">
								<g>
									<defs>
										<path id="SVGID_15_" d="M5309.8-686.7c-11.1,13.8-21.2,26.5-29.6,37.2c-33,41.9-161,154.1-235.5,158.5
											c-2.3,0.1-4.8,0.1-7.4,0c-1.6,0.1-3.3,0.2-5,0.2c-36.7,0-66.5-27.1-66.5-60.4c0-31.7,27-57.8,61.3-60.2
											c109.6-43.4,185-144.5,185-264.3c0-159.7-137.7-289.4-307.4-289.4c-169.7,0-307.4,129.7-307.4,289.4
											c0,10.6,0.6,21,1.8,31.2c2.8,6.4,4.3,13.5,4.3,20.9c0,30.7-26.4,55.7-59,55.7c-16.8,0-32-6.6-42.8-17.3
											c-27.4-24.7-25.6-92.6-23.5-121.7c2-28.2,6.1-61.4,14.9-88.6c27.7-84.9,99.6-167.6,173.1-215.7
											c44.1-28.8,146.3-76.1,146.3-76.1s-10.6-3.6-21.4-5.6c-2.5-0.5-5-0.9-7.5-1.4c-5.4-1.3-11.3-2.4-16.8-2.8
											c-51.4-7.8-110.6-11.3-172.4-4.1c-121.5,14.1-225.6,75.4-281.4,111.2c-9.6,10.4-23.8,17.1-39.6,17.1
											c-29,0-52.5-22.2-52.5-49.5c0-18.3,10.6-34.3,26.3-42.9c20.6-16,45.4-29.6,55.7-38.7c4.3-3.8,44.8-33.5,52.4-39.6
											c2.5-2-62.8,23.1-67.3,24.1c-1.2,0.3-2.3,0.5-3.4,0.7c-4.9,1.6-10.3,2.4-15.8,2.4c-26.4,0-47.9-19.5-47.9-43.6
											c0-3.1,0.4-6.2,1.1-9.2c1.2-6.3,4-12.8,8.8-19.2c43.3-57.4,236.4-53.4,242.4-60c2.8-3-5.4-10.7-10.7-13.3
											c-10.3-5-35.7-14.4-51.3-17c-2.9,0.6-5.9,0.9-9.1,0.9c-22.2,0-40.3-16.2-40.3-36.1c0-12.1,6.7-22.8,16.9-29.4
											c21.6-15.4,77.4-15.7,125.2-12.9c37.1,0.7,76.7,3.6,117.6,8.9c8.6,1.1,17.1,2.3,25.5,3.6c40.5,4.7,80.9,11,119,18.8
											c114.2,23.2,217.6,80.5,334.9,94.3c86.8,10.2,379.2-42,379.2-42l119.6,208.1l78.4,136.4c0.2,0.2-32.8,14-40.1,18.4
											c-44.7,117.4-124.7,237.8-236.2,344.3C5372.1-737.1,5341.3-710.8,5309.8-686.7z"/>
									</defs>
									<clipPath id="SVGID_16_">
										<use xlink:href="#SVGID_15_"  style="overflow:visible;"/>
									</clipPath>
									<g class="st10">
										<path class="st6" d="M4281-1235.8c-19.9,15.5-44.2,21-51.1,13.1c-6.9-7.9,3.5-26.8,23.3-42.3c19.9-15.5,37-26.3,43.9-18.3
											C4304-1275.4,4300.8-1251.3,4281-1235.8"/>
									</g>
								</g>
								<g>
									<defs>
										<rect id="SVGID_17_" x="4227" y="-1409" width="52" height="43"/>
									</defs>
									<clipPath id="SVGID_18_">
										<use xlink:href="#SVGID_17_"  style="overflow:visible;"/>
									</clipPath>
									<g class="st11">
										<g>
											<defs>
												<path id="SVGID_19_" d="M5309.8-686.7c-11.1,13.8-21.2,26.5-29.6,37.2c-33,41.9-161,154.1-235.5,158.5
													c-2.3,0.1-4.8,0.1-7.4,0c-1.6,0.1-3.3,0.2-5,0.2c-36.7,0-66.5-27.1-66.5-60.4c0-31.7,27-57.8,61.3-60.2
													c109.6-43.4,185-144.5,185-264.3c0-159.7-137.7-289.4-307.4-289.4c-169.7,0-307.4,129.7-307.4,289.4
													c0,10.6,0.6,21,1.8,31.2c2.8,6.4,4.3,13.5,4.3,20.9c0,30.7-26.4,55.7-59,55.7c-16.8,0-32-6.6-42.8-17.3
													c-27.4-24.7-25.6-92.6-23.5-121.7c2-28.2,6.1-61.4,14.9-88.6c27.7-84.9,99.6-167.6,173.1-215.7
													c44.1-28.8,146.3-76.1,146.3-76.1s-10.6-3.6-21.4-5.6c-2.5-0.5-5-0.9-7.5-1.4c-5.4-1.3-11.3-2.4-16.8-2.8
													c-51.4-7.8-110.6-11.3-172.4-4.1c-121.5,14.1-225.6,75.4-281.4,111.2c-9.6,10.4-23.8,17.1-39.6,17.1
													c-29,0-52.5-22.2-52.5-49.5c0-18.3,10.6-34.3,26.3-42.9c20.6-16,45.4-29.6,55.7-38.7c4.3-3.8,44.8-33.5,52.4-39.6
													c2.5-2-62.8,23.1-67.3,24.1c-1.2,0.3-2.3,0.5-3.4,0.7c-4.9,1.6-10.3,2.4-15.8,2.4c-26.4,0-47.9-19.5-47.9-43.6
													c0-3.1,0.4-6.2,1.1-9.2c1.2-6.3,4-12.8,8.8-19.2c43.3-57.4,236.4-53.4,242.4-60c2.8-3-5.4-10.7-10.7-13.3
													c-10.3-5-35.7-14.4-51.3-17c-2.9,0.6-5.9,0.9-9.1,0.9c-22.2,0-40.3-16.2-40.3-36.1c0-12.1,6.7-22.8,16.9-29.4
													c21.6-15.4,77.4-15.7,125.2-12.9c37.1,0.7,76.7,3.6,117.6,8.9c8.6,1.1,17.1,2.3,25.5,3.6c40.5,4.7,80.9,11,119,18.8
													c114.2,23.2,217.6,80.5,334.9,94.3c86.8,10.2,379.2-42,379.2-42l119.6,208.1l78.4,136.4c0.2,0.2-32.8,14-40.1,18.4
													c-44.7,117.4-124.7,237.8-236.2,344.3C5372.1-737.1,5341.3-710.8,5309.8-686.7z"/>
											</defs>
											<clipPath id="SVGID_20_">
												<use xlink:href="#SVGID_19_"  style="overflow:visible;"/>
											</clipPath>
											<g class="st12">
												<path class="st6" d="M4263.7-1375.4c-13.9,9.1-32.1,11.8-35.2,5.7c-3.4-6.7,4.9-19.9,18-27.3
													c16.5-9.3,26.3-14.3,30.4-8.8C4281-1400.1,4277.6-1384.5,4263.7-1375.4"/>
											</g>
										</g>
										<g>
											<defs>
												<rect id="SVGID_21_" x="4370" y="-1547" width="43" height="24"/>
											</defs>
											<clipPath id="SVGID_22_">
												<use xlink:href="#SVGID_21_"  style="overflow:visible;"/>
											</clipPath>
											<g class="st13">
												<g>
													<defs>
														<path id="SVGID_23_" d="M5309.8-686.7c-11.1,13.8-21.2,26.5-29.6,37.2c-33,41.9-161,154.1-235.5,158.5
															c-2.3,0.1-4.8,0.1-7.4,0c-1.6,0.1-3.3,0.2-5,0.2c-36.7,0-66.5-27.1-66.5-60.4c0-31.7,27-57.8,61.3-60.2
															c109.6-43.4,185-144.5,185-264.3c0-159.7-137.7-289.4-307.4-289.4c-169.7,0-307.4,129.7-307.4,289.4
															c0,10.6,0.6,21,1.8,31.2c2.8,6.4,4.3,13.5,4.3,20.9c0,30.7-26.4,55.7-59,55.7c-16.8,0-32-6.6-42.8-17.3
															c-27.4-24.7-25.6-92.6-23.5-121.7c2-28.2,6.1-61.4,14.9-88.6c27.7-84.9,99.6-167.6,173.1-215.7
															c44.1-28.8,146.3-76.1,146.3-76.1s-10.6-3.6-21.4-5.6c-2.5-0.5-5-0.9-7.5-1.4c-5.4-1.3-11.3-2.4-16.8-2.8
															c-51.4-7.8-110.6-11.3-172.4-4.1c-121.5,14.1-225.6,75.4-281.4,111.2c-9.6,10.4-23.8,17.1-39.6,17.1
															c-29,0-52.5-22.2-52.5-49.5c0-18.3,10.6-34.3,26.3-42.9c20.6-16,45.4-29.6,55.7-38.7c4.3-3.8,44.8-33.5,52.4-39.6
															c2.5-2-62.8,23.1-67.3,24.1c-1.2,0.3-2.3,0.5-3.4,0.7c-4.9,1.6-10.3,2.4-15.8,2.4c-26.4,0-47.9-19.5-47.9-43.6
															c0-3.1,0.4-6.2,1.1-9.2c1.2-6.3,4-12.8,8.8-19.2c43.3-57.4,236.4-53.4,242.4-60c2.8-3-5.4-10.7-10.7-13.3
															c-10.3-5-35.7-14.4-51.3-17c-2.9,0.6-5.9,0.9-9.1,0.9c-22.2,0-40.3-16.2-40.3-36.1c0-12.1,6.7-22.8,16.9-29.4
															c21.6-15.4,77.4-15.7,125.2-12.9c37.1,0.7,76.7,3.6,117.6,8.9c8.6,1.1,17.1,2.3,25.5,3.6c40.5,4.7,80.9,11,119,18.8
															c114.2,23.2,217.6,80.5,334.9,94.3c86.8,10.2,379.2-42,379.2-42l119.6,208.1l78.4,136.4c0.2,0.2-32.8,14-40.1,18.4
															c-44.7,117.4-124.7,237.8-236.2,344.3C5372.1-737.1,5341.3-710.8,5309.8-686.7z"/>
													</defs>
													<clipPath id="SVGID_24_">
														<use xlink:href="#SVGID_23_"  style="overflow:visible;"/>
													</clipPath>
													<g class="st14">
														<path class="st6" d="M4396.7-1526.2c-11.7,4.1-25.1,3.5-26.1-1.1c-1-5,11.5-12.9,18.4-15.8c7-2.9,21.6-6,23.3-1.6
															C4414.1-1540.4,4408.4-1530.3,4396.7-1526.2"/>
													</g>
												</g>
												<path class="st15" d="M5871.6-1197L5679-1606.8l-243.6,124.2l208.7,404.8L5871.6-1197"/>
												<g>
													<defs>
														<rect id="SVGID_25_" x="5602" y="-1229" width="270" height="152"/>
													</defs>
													<clipPath id="SVGID_26_">
														<use xlink:href="#SVGID_25_"  style="overflow:visible;"/>
													</clipPath>
													<g class="st16">
														<g>
															<defs>
																<polygon id="SVGID_27_" points="5871.6,-1197 5679,-1606.8 5435.4,-1482.6 5644.1,-1077.8 																"/>
															</defs>
															<clipPath id="SVGID_28_">
																<use xlink:href="#SVGID_27_"  style="overflow:visible;"/>
															</clipPath>
															<g class="st17">
																<path class="st18" d="M5871.6-1197l-19.4-31.8l-250,101.8l20.8,60.1L5871.6-1197"/>
															</g>
														</g>
														<path class="st19" d="M6717-2120v727.6l-965.1,368.3l-260.7-533.3L6717-2120"/>
														<g>
															<defs>
																<rect id="SVGID_29_" x="5841" y="-1176" width="75" height="72"/>
															</defs>
															<clipPath id="SVGID_30_">
																<use xlink:href="#SVGID_29_"  style="overflow:visible;"/>
															</clipPath>
															<g class="st20">
																<g>
																	<defs>
																		<polygon id="SVGID_31_" points="6717,-2120 6717,-1392.4 5751.9,-1024.1 5491.3,-1557.4 																		"/>
																	</defs>
																	<clipPath id="SVGID_32_">
																		<use xlink:href="#SVGID_31_"  style="overflow:visible;"/>
																	</clipPath>
																	<g class="st21">
																		<path class="st22" d="M5878.7-1175.1c20.6,0,37.2,15.7,37.2,35.1c0,19.4-16.7,35.1-37.2,35.1
																			c-20.5,0-37.2-15.7-37.2-35.1C5841.4-1159.4,5858.1-1175.1,5878.7-1175.1"/>
																	</g>
																</g>
																<g>
																	<defs>
																		<rect id="SVGID_33_" x="5949" y="-1205" width="75" height="71"/>
																	</defs>
																	<clipPath id="SVGID_34_">
																		<use xlink:href="#SVGID_33_"  style="overflow:visible;"/>
																	</clipPath>
																	<g class="st23">
																		<g>
																			<defs>
																				<polygon id="SVGID_35_" points="6717,-2120 6717,-1392.4 5751.9,-1024.1 5491.3,-1557.4 																				
																					"/>
																			</defs>
																			<clipPath id="SVGID_36_">
																				<use xlink:href="#SVGID_35_"  style="overflow:visible;"/>
																			</clipPath>
																			<g class="st24">
																				<path class="st22" d="M5986.8-1204.9c20.6,0,37.2,15.7,37.2,35.1c0,19.4-16.7,35.1-37.2,35.1
																					c-20.5,0-37.2-15.7-37.2-35.1C5949.5-1189.1,5966.2-1204.9,5986.8-1204.9"/>
																			</g>
																		</g>
																		<g>
																			<defs>
																				<rect id="SVGID_37_" x="5845" y="-1172" width="68" height="64"/>
																			</defs>
																			<clipPath id="SVGID_38_">
																				<use xlink:href="#SVGID_37_"  style="overflow:visible;"/>
																			</clipPath>
																			<g class="st25">
																				<g>
																					<defs>
																						<path id="SVGID_39_" d="M5878.7-1175.1c20.6,0,37.2,15.7,37.2,35.1c0,19.4-16.7,35.1-37.2,35.1
																							c-20.5,0-37.2-15.7-37.2-35.1C5841.4-1159.4,5858.1-1175.1,5878.7-1175.1z"/>
																					</defs>
																					<clipPath id="SVGID_40_">
																						<use xlink:href="#SVGID_39_"  style="overflow:visible;"/>
																					</clipPath>
																					<g class="st26">
																						<g>
																							<defs>
																								<polygon id="SVGID_41_" points="6717,-2120 6717,-1392.4 5751.9,-1024.1 5491.3,-1557.4 
																																																	"/>
																							</defs>
																							<clipPath id="SVGID_42_">
																								<use xlink:href="#SVGID_41_"  style="overflow:visible;"/>
																							</clipPath>
																							<g class="st27">
																								<path class="st28" d="M5878.7-1171.6c18.5,0,33.6,14.2,33.6,31.6c0,17.5-15,31.6-33.6,31.6
																									c-18.5,0-33.5-14.2-33.5-31.6C5845.1-1157.4,5860.2-1171.6,5878.7-1171.6"/>
																							</g>
																						</g>
																					</g>
																				</g>
																				<g>
																					<defs>
																						<rect id="SVGID_43_" x="5953" y="-1202" width="68" height="64"/>
																					</defs>
																					<clipPath id="SVGID_44_">
																						<use xlink:href="#SVGID_43_"  style="overflow:visible;"/>
																					</clipPath>
																					<g class="st29">
																						<g>
																							<defs>
																								<path id="SVGID_45_" d="M5986.8-1204.9c20.6,0,37.2,15.7,37.2,35.1c0,19.4-16.7,35.1-37.2,35.1
																									c-20.5,0-37.2-15.7-37.2-35.1C5949.5-1189.1,5966.2-1204.9,5986.8-1204.9z"/>
																							</defs>
																							<clipPath id="SVGID_46_">
																								<use xlink:href="#SVGID_45_"  style="overflow:visible;"/>
																							</clipPath>
																							<g class="st30">
																								<g>
																									<defs>
																										<polygon id="SVGID_47_" points="6717,-2120 6717,-1392.4 5751.9,-1024.1 5491.3,-1557.4 
																																																					"/>
																									</defs>
																									<clipPath id="SVGID_48_">
																										<use xlink:href="#SVGID_47_"  style="overflow:visible;"/>
																									</clipPath>
																									<g class="st31">
																										<path class="st28" d="M5986.8-1201.4c18.5,0,33.5,14.2,33.5,31.6c0,17.5-15,31.6-33.5,31.6
																											c-18.5,0-33.5-14.2-33.5-31.6C5953.2-1187.2,5968.3-1201.4,5986.8-1201.4"/>
																									</g>
																								</g>
																							</g>
																						</g>
																						<g>
																							<defs>
																								<rect id="SVGID_49_" x="5866" y="-1152" width="13" height="12"/>
																							</defs>
																							<clipPath id="SVGID_50_">
																								<use xlink:href="#SVGID_49_"  style="overflow:visible;"/>
																							</clipPath>
																							<g class="st32">
																								<g>
																									<defs>
																										<path id="SVGID_51_" d="M5878.7-1175.1c20.6,0,37.2,15.7,37.2,35.1c0,19.4-16.7,35.1-37.2,35.1
																											c-20.5,0-37.2-15.7-37.2-35.1C5841.4-1159.4,5858.1-1175.1,5878.7-1175.1z"/>
																									</defs>
																									<clipPath id="SVGID_52_">
																										<use xlink:href="#SVGID_51_"  style="overflow:visible;"/>
																									</clipPath>
																									<g class="st33">
																										<g>
																											<defs>
																												<polygon id="SVGID_53_" points="6717,-2120 6717,-1392.4 5751.9,-1024.1 5491.3,-1557.4 
																																																									"/>
																											</defs>
																											<clipPath id="SVGID_54_">
																												<use xlink:href="#SVGID_53_"  style="overflow:visible;"/>
																											</clipPath>
																											<g class="st34">
																												<path d="M5872.7-1151.9c3.3,0,5.9,2.5,5.9,5.6s-2.7,5.6-5.9,5.6c-3.3,0-6-2.5-6-5.6
																													S5869.4-1151.9,5872.7-1151.9"/>
																											</g>
																										</g>
																									</g>
																								</g>
																								<g>
																									<defs>
																										<rect id="SVGID_55_" x="5974" y="-1182" width="13" height="12"/>
																									</defs>
																									<clipPath id="SVGID_56_">
																										<use xlink:href="#SVGID_55_"  style="overflow:visible;"/>
																									</clipPath>
																									<g class="st35">
																										<g>
																											<defs>
																												<path id="SVGID_57_" d="M5986.8-1204.9c20.6,0,37.2,15.7,37.2,35.1c0,19.4-16.7,35.1-37.2,35.1
																													c-20.5,0-37.2-15.7-37.2-35.1C5949.5-1189.1,5966.2-1204.9,5986.8-1204.9z"/>
																											</defs>
																											<defs>
																												<rect id="SVGID_58_" x="5878" y="-1137" width="13" height="12"/>
																											</defs>
																											<clipPath id="SVGID_59_">
																												<use xlink:href="#SVGID_57_"  style="overflow:visible;"/>
																											</clipPath>
																											<clipPath id="SVGID_60_" class="st36">
																												<use xlink:href="#SVGID_58_"  style="overflow:visible;"/>
																											</clipPath>
																											<g class="st37">
																												<g>
																													<defs>
																														<rect id="SVGID_61_" x="5491" y="-2120" width="1226" height="986"/>
																													</defs>
																													<defs>
																														<rect id="SVGID_62_" x="2992" y="1428" width="1394" height="622"/>
																													</defs>
																													<defs>
																														<rect id="SVGID_63_" x="3817" y="1672" width="114" height="119"/>
																													</defs>
																													<defs>
																														<rect id="SVGID_64_" x="3817" y="1672" width="102" height="119"/>
																													</defs>
																													<defs>
																														<rect id="SVGID_65_" x="2833" y="2192" width="71" height="82"/>
																													</defs>
																													<defs>
																														<rect id="SVGID_66_" x="2836" y="2196" width="64" height="74"/>
																													</defs>
																													<defs>
																														<rect id="SVGID_67_" x="2863" y="2216" width="12" height="14"/>
																													</defs>
																													<defs>
																														<rect id="SVGID_68_" x="2863" y="2238" width="12" height="14"/>
																													</defs>
																													<defs>
																														<rect id="SVGID_69_" x="2734" y="2230" width="71" height="82"/>
																													</defs>
																													<defs>
																														<rect id="SVGID_70_" x="2737" y="2234" width="64" height="74"/>
																													</defs>
																													<defs>
																														<rect id="SVGID_71_" x="2764" y="2254" width="12" height="14"/>
																													</defs>
																													<defs>
																														<rect id="SVGID_72_" x="2764" y="2276" width="12" height="14"/>
																													</defs>
																													<defs>
																														<rect id="SVGID_73_" x="1917" y="2082" width="1096" height="598"/>
																													</defs>
																													<clipPath id="SVGID_74_">
																														<use xlink:href="#SVGID_61_"  style="overflow:visible;"/>
																													</clipPath>
																													<clipPath id="SVGID_75_" class="st38">
																														<use xlink:href="#SVGID_62_"  style="overflow:visible;"/>
																													</clipPath>
																													<clipPath id="SVGID_76_" class="st39">
																														<use xlink:href="#SVGID_63_"  style="overflow:visible;"/>
																													</clipPath>
																													<clipPath id="SVGID_77_" class="st40">
																														<use xlink:href="#SVGID_64_"  style="overflow:visible;"/>
																													</clipPath>
																													<clipPath id="SVGID_78_" class="st41">
																														<use xlink:href="#SVGID_65_"  style="overflow:visible;"/>
																													</clipPath>
																													<clipPath id="SVGID_79_" class="st42">
																														<use xlink:href="#SVGID_66_"  style="overflow:visible;"/>
																													</clipPath>
																													<clipPath id="SVGID_80_" class="st43">
																														<use xlink:href="#SVGID_67_"  style="overflow:visible;"/>
																													</clipPath>
																													<clipPath id="SVGID_81_" class="st44">
																														<use xlink:href="#SVGID_68_"  style="overflow:visible;"/>
																													</clipPath>
																													<clipPath id="SVGID_82_" class="st45">
																														<use xlink:href="#SVGID_69_"  style="overflow:visible;"/>
																													</clipPath>
																													<clipPath id="SVGID_83_" class="st46">
																														<use xlink:href="#SVGID_70_"  style="overflow:visible;"/>
																													</clipPath>
																													<clipPath id="SVGID_84_" class="st47">
																														<use xlink:href="#SVGID_71_"  style="overflow:visible;"/>
																													</clipPath>
																													<clipPath id="SVGID_85_" class="st48">
																														<use xlink:href="#SVGID_72_"  style="overflow:visible;"/>
																													</clipPath>
																													<clipPath id="SVGID_86_" class="st49">
																														<use xlink:href="#SVGID_73_"  style="overflow:visible;"/>
																													</clipPath>
																													<path class="st50" d="M4681.9-426.7c97.2,21.6,158.9,116.7,137.6,212.2
																														c-21.3,95.5-117.4,155.4-214.7,133.8c-97.2-21.6-158.9-116.7-137.6-212.2
																														C4488.5-388.4,4584.7-448.4,4681.9-426.7"/>
																													<path class="st51" d="M4676-400c82.2,18.3,134.3,98.7,116.3,179.4c-18,80.7-99.3,131.4-181.5,113.1
																														c-82.2-18.3-134.3-98.7-116.3-179.4C4512.4-367.6,4593.8-418.3,4676-400"/>
																													<path class="st52" d="M4522-164c-26-34-37.4-78.4-27.5-122.9c18-80.7,99.3-131.4,181.5-113.1
																														c39.2,8.7,71.6,31.6,92.8,62c-21.2-27.6-52-48.3-88.8-56.5c-82.2-18.3-163.5,32.4-181.5,113.1
																														C4489.1-239.3,4498.8-197.2,4522-164"/>
																													<path class="st53" d="M4673.2-400.6c0.9,0.2,1.9,0.4,2.8,0.6c82.2,18.3,134.3,98.7,116.3,179.4
																														c-18,80.7-99.3,131.4-181.5,113.1c-0.9-0.2-1.9-0.4-2.8-0.6c81.2,16.6,160.9-33.9,178.7-113.7
																														C4804.5-301.6,4753.7-381.1,4673.2-400.6"/>
																													<path class="st54" d="M4663.4-323.9c1.3,0.2,2.6,0.5,4,0.8l3-13.5l15.8,3.5l-3.2,14.3
																														c11.5,3.9,18.6,8.5,24.3,13.1l-4.7,21.1c-9.2-6.2-21.5-12.6-39.3-16.6c-16.8-3.8-27.7,0.8-30.4,12.8
																														c-2.6,11.9,0.9,17.9,15.9,25.7l14,7.7c23.8,12.4,36.8,25.7,30.8,52.5c-5,22.3-19.8,35.6-44.6,36.1
																														l-3.5,15.9l-15.8-3.5l3.1-13.7c-1.3-0.2-2.7-0.4-4-0.7l-3,13.5l-15.8-3.5l3.1-14.1
																														c-14.4-4.6-25.2-10.7-32.8-16.8l4.7-21.3c11.7,8.1,26,15.5,43.6,19.4c3.6,0.8,6.8,1.3,9.8,1.5
																														c-0.2,0-0.4-0.1-0.7-0.1l9.7-0.3c9.4-1.6,14.7-7.4,16.7-16.2c2.8-12.5-2-18.6-18.4-27.6l-14.3-7.3
																														c-21.4-11-32.6-25.5-27-50.9c4.5-20.2,18.9-32.8,42.7-33.1l3.5-15.7l15.8,3.5L4663.4-323.9z"/>
																													<path class="st55" d="M4618.2-195.3l15.5,4.7C4628.2-191.8,4623.1-193.4,4618.2-195.3"/>
																													<path class="st54" d="M4655.9-332.5c1.3,0.2,2.6,0.5,4,0.8l3-13.5l15.8,3.5l-3.2,14.3
																														c11.5,3.9,18.6,8.5,24.3,13.1l-4.7,21.1c-9.2-6.2-21.5-12.6-39.3-16.6c-16.8-3.8-27.7,0.8-30.4,12.8
																														c-2.6,11.9,0.9,17.9,15.9,25.7l14,7.7c23.8,12.4,36.8,25.7,30.8,52.5c-5,22.3-19.8,35.6-44.6,36.1
																														l-3.5,16l-15.8-3.5l3.1-13.7c-1.3-0.2-2.7-0.5-4-0.7l-3,13.5l-15.8-3.5l3.1-14.1
																														c-14.4-4.6-25.2-10.7-32.8-16.8l4.7-21.3c11.7,8.1,26,15.5,43.6,19.4c3.6,0.8,6.8,1.3,9.8,1.5
																														c-0.2,0-0.4-0.1-0.7-0.1l9.7-0.3c9.4-1.6,14.7-7.4,16.7-16.2c2.8-12.5-2-18.6-18.4-27.6l-14.3-7.3
																														c-21.4-11-32.6-25.5-27-50.9c4.5-20.2,18.9-32.8,42.7-33.2l3.5-15.6l15.8,3.5L4655.9-332.5z"/>
																													<path class="st56" d="M4610.7-203.9l15.5,4.7C4620.7-200.5,4615.6-202.1,4610.7-203.9"/>
																													<path class="st54" d="M3419.2,2049.8c-59.3,1.1-118.6-2.8-178-4c-40.1-0.8-78.4,15.5-118.5,14.6
																														c-12.6-0.3-43.3-3.8-53.4-14.7c-33.6-36.1-62.1-201.4-65-250c-1.9-31-2.8-62.4-7-93.1
																														c-0.6-4.6-3.9-30.2-5.1-30.5c3.2-1.9,64.4-38.6,90.8-61.9c23.4-20.6,144-105.5,223.2-98.6
																														c115,10,265.3,177.3,467,158.9c220.3-20.1,194-144.2,263.3-188c27.3-17.3,69.3-31.9,82.2-11.2
																														c0.1,0.2,39.3-42.5,83.5-46.4c17.7-1.6,30.3,6.4,34.5,16.6c3.6,8.6,3.7,17.8,9.4,18.2
																														c5.1,0.3,17.5-10,26-15.5c27.1-17.3,49.4-11.4,62.5,15.4c0.4,0.9,10.2,29.6-4.4,52.9
																														c-4.8,7.7,30.1-19.7,57.4,18.3c11.1,15.4-5.9,45.2-19.6,71.1c-179,338.9-502.8,415.8-595,434
																														C3633.7,2063.3,3507.9,2048.1,3419.2,2049.8z"/>
																													<path class="st57" d="M2992.2,1672.1l-0.1,0.1C2992.1,1672.1,2992.1,1672.1,2992.2,1672.1"/>
																													<path class="st58" d="M2962.2,2153.2l-148.5-475.6l186.3-46.8l100.9,451.8L2962.2,2153.2"/>
																													<path class="st59" d="M1917,2680v-729.8l992-319.4l103.3,565.9L1917,2680"/>
																												</g>
																											</g>
																										</g>
																									</g>
																								</g>
																							</g>
																						</g>
																					</g>
																				</g>
																			</g>
																		</g>
																	</g>
																</g>
															</g>
														</g>
													</g>
												</g>
											</g>
										</g>
									</g>
								</g>
							</g>
						</g>
					</g>
				</g>
			</g>
		</g>
	</g>
</g>
<polygon class="st60" points="6720,-2120 6720,-1392.4 5754.9,-1024.1 5494.2,-1557.4 "/>
<path class="st61" d="M5881.6-1175.1c20.6,0,37.2,15.7,37.2,35.1c0,19.4-16.7,35.1-37.2,35.1c-20.5,0-37.2-15.7-37.2-35.1
	C5844.4-1159.4,5861.1-1175.1,5881.6-1175.1z"/>
<rect x="5989" y="-1167" class="st61" width="13" height="12"/>
<g>
	<path class="st62" d="M3726.3-704.5h1173v586.8h-1173V-704.5"/>
	<path class="st63" d="M3887.5-658.2h850.5c0,63.5,51.5,114.9,114.9,114.9v264.4c-63.5,0-114.9,51.5-114.9,114.9h-850.5
		c0-63.5-51.5-114.9-114.9-114.9v-264.4C3836.1-543.2,3887.5-594.7,3887.5-658.2"/>
	<path class="st62" d="M3815.4-431.9c11.5,0,20.8,9.3,20.8,20.8c0,11.5-9.3,20.8-20.8,20.8c-11.5,0-20.8-9.3-20.8-20.8
		C3794.6-422.6,3803.9-431.9,3815.4-431.9"/>
	<path class="st62" d="M4810.6-431.9c11.5,0,20.8,9.3,20.8,20.8c0,11.5-9.3,20.8-20.8,20.8c-11.5,0-20.8-9.3-20.8-20.8
		C4789.8-422.6,4799.1-431.9,4810.6-431.9"/>
	<path class="st62" d="M4312.8-576.3c91.3,0,165.2,74,165.2,165.2s-74,165.2-165.2,165.2s-165.2-74-165.2-165.2
		S4221.5-576.3,4312.8-576.3"/>
	<path class="st63" d="M4377.9-368.7c0-66.6-84.9-57.8-84.9-94.2c0-12,9.1-20.8,22.4-20.8c12.2,0,20.8,7.5,23.7,20.2l31.2-14.4
		c-6.4-19.4-22.6-33.3-43.7-37.3v-18.6h-34.6v21.6c-19.7,7.7-33.3,25.3-33.3,50.3c0,62.3,84.7,51.6,84.7,92.7c0,16.5-12,29-30.1,29
		c-16.2,0-29.6-10.1-34.1-26.9l-31.4,14.1c6.1,20.8,22.6,37,44.2,43.7v21h34.6V-307C4356.3-312,4377.9-335.4,4377.9-368.7"/>
	<g>
		<path class="st64" d="M5071.7-245.8c0-100.6-81.6-182.2-182.2-182.2c-100.6,0-182.2,81.6-182.2,182.2
			c0,100.6,81.6,182.2,182.2,182.2C4990.2-63.6,5071.7-145.2,5071.7-245.8"/>
		<path class="st22" d="M4957.2-316.9l-97.6,97.6l-26.8-26.8l-7.9-7.9c-3.8-3.8-10-3.8-13.8,0l-15.9,15.9c-3.8,3.8-3.8,10,0,13.8
			l7.9,7.9l49.5,49.5c3.8,3.8,10,3.8,13.8,0l120.4-120.4l7.9-7.9c3.8-3.8,3.8-10,0-13.8l-15.9-15.9c-3.8-3.8-10-3.8-13.8,0
			L4957.2-316.9"/>
	</g>
</g>
<path class="st0" d="M3273.9-432c14.6-10.1,27.9-19.3,39.1-27.1c43.7-30.7,198.4-101.5,271-84.3c2.2,0.5,4.6,1.2,7.1,2.1
	c1.6,0.4,3.2,0.8,4.8,1.3c35.2,10.5,55.9,45,46.4,76.9c-9.1,30.4-42.5,47.6-76,40.1c-117.4,10.1-218.7,85.4-253,200.2
	c-45.8,153,48.9,316.7,211.5,365.4c162.5,48.7,331.7-36.1,377.5-189.1c3-10.1,5.4-20.3,7.3-30.4c-0.8-7-0.2-14.2,1.9-21.2
	c8.8-29.4,41.3-45.7,72.5-36.4c16.1,4.8,28.7,15.5,36,28.8c19.2,31.5-2,96.1-12.4,123.3c-10,26.4-23.4,57.1-39.7,80.6
	c-50.9,73.4-143.5,132-227.7,156.9c-50.5,15-162,31-162,31s9.1,6.5,18.9,11.5c2.3,1.2,4.5,2.3,6.8,3.5c4.8,2.8,10.1,5.5,15.3,7.5
	c47.1,22.2,102.8,42.5,164,53.4c120.4,21.4,237.7-7.5,301.4-25.8c12.2-7.2,27.7-9.5,42.9-5c27.8,8.3,43.9,36.3,36.1,62.5
	c-5.3,17.6-20,29.9-37.5,33.6c-24.3,9.4-52,15.4-64.5,21.1c-5.2,2.4-52.5,19.2-61.5,22.9c-3,1.2,66.8-4.1,71.3-3.8
	c1.2,0.1,2.3,0.2,3.5,0.3c5.2-0.1,10.5,0.6,15.8,2.2c25.3,7.6,40.3,32.5,33.4,55.5c-0.9,3-2.1,5.8-3.6,8.5
	c-2.9,5.7-7.5,11.2-13.9,15.9c-57.9,42.5-241.8-16.7-249.4-12c-3.5,2.1,2.1,11.8,6.4,15.8c8.5,7.8,30.1,24,44.3,31
	c3,0.3,6,0.8,8.9,1.7c21.3,6.4,34,27,28.2,46.1c-3.5,11.6-12.9,20-24.6,23.3c-25.1,8.6-78.6-7.2-123.7-23.6
	c-35.3-11.3-72.4-25.5-110.1-42.3c-7.9-3.5-15.7-7.1-23.4-10.7c-37.5-16.1-74.3-33.7-108.6-52.1c-102.7-55-185.4-139.5-293.8-186.4
	c-80.2-34.7-375.3-68.5-375.3-68.5l-54.9-233.7l-36-153.1c-0.2-0.2,35.4-4,43.7-6.1c76.5-99.7,187.6-192,325-262.1
	C3199.9-401.6,3236.8-418,3273.9-432"/>
<g>
	<defs>
		
			<rect id="SVGID_87_" x="2795.9" y="-536.4" transform="matrix(0.958 0.2868 -0.2868 0.958 146.2906 -1010.6016)" width="1454" height="1061"/>
	</defs>
	<clipPath id="SVGID_88_">
		<use xlink:href="#SVGID_87_"  style="overflow:visible;"/>
	</clipPath>
	<g class="st65">
		<g>
			<defs>
				<path id="SVGID_89_" d="M3276.7-431.2c14.6-10.1,27.9-19.3,39.1-27.1c43.7-30.7,198.4-101.5,271-84.3c2.2,0.5,4.6,1.2,7.1,2.1
					c1.6,0.4,3.2,0.8,4.8,1.3c35.2,10.5,55.9,45,46.4,76.9c-9.1,30.4-42.5,47.6-76,40.1c-117.4,10.1-218.7,85.4-253,200.2
					c-45.8,153,48.9,316.7,211.5,365.4c162.5,48.7,331.7-36.1,377.5-189.1c3-10.1,5.4-20.3,7.3-30.4c-0.8-7-0.2-14.2,1.9-21.2
					c8.8-29.4,41.3-45.7,72.5-36.4c16.1,4.8,28.7,15.5,36,28.8c19.2,31.5-2,96.1-12.4,123.3c-10,26.4-23.4,57.1-39.7,80.6
					c-50.9,73.4-143.5,132-227.7,156.9c-50.5,15-162,31-162,31s9.1,6.5,18.9,11.5c2.3,1.2,4.5,2.3,6.8,3.5
					c4.8,2.8,10.1,5.5,15.3,7.5c47.1,22.2,102.8,42.5,164,53.4c120.4,21.4,237.7-7.5,301.5-25.8c12.2-7.2,27.7-9.5,42.9-5
					c27.8,8.3,43.9,36.3,36.1,62.5c-5.3,17.6-20,29.9-37.5,33.6c-24.3,9.4-52,15.4-64.5,21.1c-5.2,2.4-52.5,19.2-61.5,22.9
					c-3,1.2,66.8-4.1,71.3-3.8c1.2,0.1,2.3,0.2,3.5,0.3c5.2-0.1,10.5,0.6,15.8,2.2c25.3,7.6,40.3,32.5,33.4,55.5
					c-0.9,3-2.1,5.8-3.6,8.5c-2.9,5.7-7.5,11.2-13.9,15.9c-57.9,42.5-241.8-16.7-249.4-12c-3.5,2.1,2.1,11.8,6.4,15.8
					c8.5,7.8,30.1,24,44.3,31c3,0.3,6,0.8,8.9,1.7c21.3,6.4,34,27,28.2,46.1c-3.5,11.6-12.9,20-24.6,23.3
					c-25.1,8.6-78.6-7.2-123.7-23.6c-35.3-11.3-72.4-25.5-110.1-42.3c-7.9-3.5-15.7-7.1-23.4-10.7c-37.5-16.1-74.3-33.7-108.6-52.1
					c-102.7-55-185.4-139.5-293.8-186.4c-80.2-34.7-375.3-68.5-375.3-68.5l-54.9-233.7l-36-153.1c-0.2-0.2,35.4-4,43.7-6.1
					c76.5-99.7,187.6-192,325-262.1C3202.7-400.8,3239.7-417.1,3276.7-431.2z"/>
			</defs>
			<clipPath id="SVGID_90_">
				<use xlink:href="#SVGID_89_"  style="overflow:visible;"/>
			</clipPath>
			<g class="st66">
				<path class="st3" d="M3926.2,486.9c46.7-7.7,132.4-19.9,164.9-13.3c20.5,4.2,37.3,29.9,30.4,53c-0.9,3-7.8,18.4-14.9,22.2
					c-46.4,25.2-110.2,10.3-181.7-2.2c-24.9-4.4-45.2-12-73.7-12.5c-19.1-0.3,41.5,55.3,63.8,56.4c22.1,1.1,35.1,21.8,29.4,40.9
					c-3.5,11.6-11.2,17.6-22.9,21c-25.1,8.6-82.7-9.3-121.6-23c-60.5-21.4-207.3-87.1-241.6-105.4
					c-102.7-55-186.1-147.8-294.5-194.7c-80.2-34.7-374.6-63.5-374.6-63.5l-92.9-377.3c-0.2-0.2,41.4,3.5,49.6,1.3
					c76.5-99.7,185.7-195.8,323.1-265.9c36.6-18.6,74.5-35,111.5-49c14.6-10.1,32-22.1,43.2-30c43.7-30.7,178.7-100,257.7-86.7
					c2.2,0.4,10.1,3.1,15.2,4.6c32.5,9.7,51.1,41,41.5,72.9c-9.1,30.4-38.9,43.1-72.5,35.6c-117.4,10.1-228,87.2-262.3,202
					c-45.8,153,45.7,332.5,208.2,381.2s349.2-36.7,395-189.7c3-10.1,7.1-30.3,8.9-40.4c-0.8-7,0.7-14.2,2.8-21.3
					c8.8-29.4,34.7-42.4,65.9-33.1c16.1,4.8,27,13.9,34.2,27.2c19.2,31.5-2.4,92.7-12.8,119.9c-10,26.4-23.2,54.6-39.5,78.2
					c-50.9,73.4-142.7,129.7-226.9,154.7c-50.5,15-159.8,32.4-159.8,32.4s-12.6,1.3-17.9,1.4c-26.8,0.7-52.1,3.5-80.8,0.6
					c-33.9-3.4-107.9-22-107.9-22c15.3,6.5,30.9,12.2,46.7,17c13.5,4.1,27.3,7.6,41.3,10.3c29.1,5.6,99.8,7.8,113.1,6.1
					c9.3,8.6,138.3,64.9,211.3,76c120.9,18.3,238.1-11.6,301.8-29.8c12.2-7.2,24.6-10.9,39.8-6.4c27.8,8.3,41.4,31.4,33.6,57.6
					c-5.3,17.6-18.6,27.9-36.1,31.6c-24.3,9.4-49.2,15.2-61.6,20.9c-3.3,1.5-94.2,32.5-139.3,37.8c-62.5,7.4-121.7,7.4-181.4,2
					c-33.1-3-66.8-7.9-100-14.5c-80.7-16.2-160.5-43.4-235.6-77.8c-1.2,0.3-0.4,0.8-0.4,0.8c54.2,26.9,110.2,49.6,167.8,67
					c3.3,1,6.6,2,9.9,2.9c58,15.4,117.3,25.8,181.1,32.6C3815.5,501.6,3871.7,495.9,3926.2,486.9z M3841.5,536.3
					c-146.8,8.7-259.9-49-417.9-115.7C3557,473.8,3655.2,525.1,3841.5,536.3"/>
			</g>
		</g>
		<g>
			<defs>
				
					<rect id="SVGID_91_" x="3521.7" y="-543.6" transform="matrix(0.958 0.2868 -0.2868 0.958 0.7829 -1046.6285)" width="103" height="46"/>
			</defs>
			<clipPath id="SVGID_92_">
				<use xlink:href="#SVGID_91_"  style="overflow:visible;"/>
			</clipPath>
			<g class="st67">
				<g>
					<defs>
						<path id="SVGID_93_" d="M3276.7-431.2c14.6-10.1,27.9-19.3,39.1-27.1c43.7-30.7,198.4-101.5,271-84.3c2.2,0.5,4.6,1.2,7.1,2.1
							c1.6,0.4,3.2,0.8,4.8,1.3c35.2,10.5,55.9,45,46.4,76.9c-9.1,30.4-42.5,47.6-76,40.1c-117.4,10.1-218.7,85.4-253,200.2
							c-45.8,153,48.9,316.7,211.5,365.4c162.5,48.7,331.7-36.1,377.5-189.1c3-10.1,5.4-20.3,7.3-30.4c-0.8-7-0.2-14.2,1.9-21.2
							c8.8-29.4,41.3-45.7,72.5-36.4c16.1,4.8,28.7,15.5,36,28.8c19.2,31.5-2,96.1-12.4,123.3c-10,26.4-23.4,57.1-39.7,80.6
							c-50.9,73.4-143.5,132-227.7,156.9c-50.5,15-162,31-162,31s9.1,6.5,18.9,11.5c2.3,1.2,4.5,2.3,6.8,3.5
							c4.8,2.8,10.1,5.5,15.3,7.5c47.1,22.2,102.8,42.5,164,53.4c120.4,21.4,237.7-7.5,301.5-25.8c12.2-7.2,27.7-9.5,42.9-5
							c27.8,8.3,43.9,36.3,36.1,62.5c-5.3,17.6-20,29.9-37.5,33.6c-24.3,9.4-52,15.4-64.5,21.1c-5.2,2.4-52.5,19.2-61.5,22.9
							c-3,1.2,66.8-4.1,71.3-3.8c1.2,0.1,2.3,0.2,3.5,0.3c5.2-0.1,10.5,0.6,15.8,2.2c25.3,7.6,40.3,32.5,33.4,55.5
							c-0.9,3-2.1,5.8-3.6,8.5c-2.9,5.7-7.5,11.2-13.9,15.9c-57.9,42.5-241.8-16.7-249.4-12c-3.5,2.1,2.1,11.8,6.4,15.8
							c8.5,7.8,30.1,24,44.3,31c3,0.3,6,0.8,8.9,1.7c21.3,6.4,34,27,28.2,46.1c-3.5,11.6-12.9,20-24.6,23.3
							c-25.1,8.6-78.6-7.2-123.7-23.6c-35.3-11.3-72.4-25.5-110.1-42.3c-7.9-3.5-15.7-7.1-23.4-10.7
							c-37.5-16.1-74.3-33.7-108.6-52.1c-102.7-55-185.4-139.5-293.8-186.4c-80.2-34.7-375.3-68.5-375.3-68.5l-54.9-233.7l-36-153.1
							c-0.2-0.2,35.4-4,43.7-6.1c76.5-99.7,187.6-192,325-262.1C3202.7-400.8,3239.7-417.1,3276.7-431.2z"/>
					</defs>
					<clipPath id="SVGID_94_">
						<use xlink:href="#SVGID_93_"  style="overflow:visible;"/>
					</clipPath>
					<g class="st68">
						<path class="st6" d="M3571.9-500c-28.4-2.5-50.9-13.6-50.3-24.9c0.7-11.3,24.3-18.4,52.8-15.9c28.4,2.5,50.9,13.6,50.2,24.9
							C3624-504.6,3600.3-497.5,3571.9-500"/>
					</g>
				</g>
				<g>
					<defs>
						
							<rect id="SVGID_95_" x="3972.3" y="-124.2" transform="matrix(0.958 0.2868 -0.2868 0.958 139.7421 -1150.5364)" width="50" height="52"/>
					</defs>
					<clipPath id="SVGID_96_">
						<use xlink:href="#SVGID_95_"  style="overflow:visible;"/>
					</clipPath>
					<g class="st69">
						<g>
							<defs>
								<path id="SVGID_97_" d="M3276.7-431.2c14.6-10.1,27.9-19.3,39.1-27.1c43.7-30.7,198.4-101.5,271-84.3
									c2.2,0.5,4.6,1.2,7.1,2.1c1.6,0.4,3.2,0.8,4.8,1.3c35.2,10.5,55.9,45,46.4,76.9c-9.1,30.4-42.5,47.6-76,40.1
									c-117.4,10.1-218.7,85.4-253,200.2c-45.8,153,48.9,316.7,211.5,365.4c162.5,48.7,331.7-36.1,377.5-189.1
									c3-10.1,5.4-20.3,7.3-30.4c-0.8-7-0.2-14.2,1.9-21.2c8.8-29.4,41.3-45.7,72.5-36.4c16.1,4.8,28.7,15.5,36,28.8
									c19.2,31.5-2,96.1-12.4,123.3c-10,26.4-23.4,57.1-39.7,80.6c-50.9,73.4-143.5,132-227.7,156.9c-50.5,15-162,31-162,31
									s9.1,6.5,18.9,11.5c2.3,1.2,4.5,2.3,6.8,3.5c4.8,2.8,10.1,5.5,15.3,7.5c47.1,22.2,102.8,42.5,164,53.4
									c120.4,21.4,237.7-7.5,301.5-25.8c12.2-7.2,27.7-9.5,42.9-5c27.8,8.3,43.9,36.3,36.1,62.5c-5.3,17.6-20,29.9-37.5,33.6
									c-24.3,9.4-52,15.4-64.5,21.1c-5.2,2.4-52.5,19.2-61.5,22.9c-3,1.2,66.8-4.1,71.3-3.8c1.2,0.1,2.3,0.2,3.5,0.3
									c5.2-0.1,10.5,0.6,15.8,2.2c25.3,7.6,40.3,32.5,33.4,55.5c-0.9,3-2.1,5.8-3.6,8.5c-2.9,5.7-7.5,11.2-13.9,15.9
									c-57.9,42.5-241.8-16.7-249.4-12c-3.5,2.1,2.1,11.8,6.4,15.8c8.5,7.8,30.1,24,44.3,31c3,0.3,6,0.8,8.9,1.7
									c21.3,6.4,34,27,28.2,46.1c-3.5,11.6-12.9,20-24.6,23.3c-25.1,8.6-78.6-7.2-123.7-23.6c-35.3-11.3-72.4-25.5-110.1-42.3
									c-7.9-3.5-15.7-7.1-23.4-10.7c-37.5-16.1-74.3-33.7-108.6-52.1c-102.7-55-185.4-139.5-293.8-186.4
									c-80.2-34.7-375.3-68.5-375.3-68.5l-54.9-233.7l-36-153.1c-0.2-0.2,35.4-4,43.7-6.1c76.5-99.7,187.6-192,325-262.1
									C3202.7-400.8,3239.7-417.1,3276.7-431.2z"/>
							</defs>
							<clipPath id="SVGID_98_">
								<use xlink:href="#SVGID_97_"  style="overflow:visible;"/>
							</clipPath>
							<g class="st70">
								<path class="st6" d="M3979.7-92.6c-5.3-15.6-4-30,5.9-32.8c9.9-2.8,26.1,5.6,31.4,21.2c5.3,15.6,0.8,30.8-9,33.5
									C3998.1-67.8,3985-77,3979.7-92.6"/>
							</g>
						</g>
						<g>
							<defs>
								
									<rect id="SVGID_99_" x="4079.2" y="377.2" transform="matrix(0.958 0.2868 -0.2868 0.958 290.8557 -1163.226)" width="74" height="68"/>
							</defs>
							<clipPath id="SVGID_100_">
								<use xlink:href="#SVGID_99_"  style="overflow:visible;"/>
							</clipPath>
							<g class="st71">
								<g>
									<defs>
										<path id="SVGID_101_" d="M3276.7-431.2c14.6-10.1,27.9-19.3,39.1-27.1c43.7-30.7,198.4-101.5,271-84.3
											c2.2,0.5,4.6,1.2,7.1,2.1c1.6,0.4,3.2,0.8,4.8,1.3c35.2,10.5,55.9,45,46.4,76.9c-9.1,30.4-42.5,47.6-76,40.1
											c-117.4,10.1-218.7,85.4-253,200.2c-45.8,153,48.9,316.7,211.5,365.4c162.5,48.7,331.7-36.1,377.5-189.1
											c3-10.1,5.4-20.3,7.3-30.4c-0.8-7-0.2-14.2,1.9-21.2c8.8-29.4,41.3-45.7,72.5-36.4c16.1,4.8,28.7,15.5,36,28.8
											c19.2,31.5-2,96.1-12.4,123.3c-10,26.4-23.4,57.1-39.7,80.6c-50.9,73.4-143.5,132-227.7,156.9c-50.5,15-162,31-162,31
											s9.1,6.5,18.9,11.5c2.3,1.2,4.5,2.3,6.8,3.5c4.8,2.8,10.1,5.5,15.3,7.5c47.1,22.2,102.8,42.5,164,53.4
											c120.4,21.4,237.7-7.5,301.5-25.8c12.2-7.2,27.7-9.5,42.9-5c27.8,8.3,43.9,36.3,36.1,62.5c-5.3,17.6-20,29.9-37.5,33.6
											c-24.3,9.4-52,15.4-64.5,21.1c-5.2,2.4-52.5,19.2-61.5,22.9c-3,1.2,66.8-4.1,71.3-3.8c1.2,0.1,2.3,0.2,3.5,0.3
											c5.2-0.1,10.5,0.6,15.8,2.2c25.3,7.6,40.3,32.5,33.4,55.5c-0.9,3-2.1,5.8-3.6,8.5c-2.9,5.7-7.5,11.2-13.9,15.9
											c-57.9,42.5-241.8-16.7-249.4-12c-3.5,2.1,2.1,11.8,6.4,15.8c8.5,7.8,30.1,24,44.3,31c3,0.3,6,0.8,8.9,1.7
											c21.3,6.4,34,27,28.2,46.1c-3.5,11.6-12.9,20-24.6,23.3c-25.1,8.6-78.6-7.2-123.7-23.6c-35.3-11.3-72.4-25.5-110.1-42.3
											c-7.9-3.5-15.7-7.1-23.4-10.7c-37.5-16.1-74.3-33.7-108.6-52.1c-102.7-55-185.4-139.5-293.8-186.4
											c-80.2-34.7-375.3-68.5-375.3-68.5l-54.9-233.7l-36-153.1c-0.2-0.2,35.4-4,43.7-6.1c76.5-99.7,187.6-192,325-262.1
											C3202.7-400.8,3239.7-417.1,3276.7-431.2z"/>
									</defs>
									<clipPath id="SVGID_102_">
										<use xlink:href="#SVGID_101_"  style="overflow:visible;"/>
									</clipPath>
									<g class="st72">
										<path class="st6" d="M4104.9,389.9c23.5-9.1,48.3-7.4,52.7,2.2c4.4,9.6-11,24.6-34.5,33.8c-23.5,9.1-42.9,14.6-47.3,5
											C4071.5,421.3,4081.4,399.1,4104.9,389.9"/>
									</g>
								</g>
								<g>
									<defs>
										
											<rect id="SVGID_103_" x="4062.2" y="521.8" transform="matrix(0.958 0.2868 -0.2868 0.958 327.536 -1149.6403)" width="52" height="43"/>
									</defs>
									<clipPath id="SVGID_104_">
										<use xlink:href="#SVGID_103_"  style="overflow:visible;"/>
									</clipPath>
									<g class="st73">
										<g>
											<defs>
												<path id="SVGID_105_" d="M3276.7-431.2c14.6-10.1,27.9-19.3,39.1-27.1c43.7-30.7,198.4-101.5,271-84.3
													c2.2,0.5,4.6,1.2,7.1,2.1c1.6,0.4,3.2,0.8,4.8,1.3c35.2,10.5,55.9,45,46.4,76.9c-9.1,30.4-42.5,47.6-76,40.1
													c-117.4,10.1-218.7,85.4-253,200.2c-45.8,153,48.9,316.7,211.5,365.4c162.5,48.7,331.7-36.1,377.5-189.1
													c3-10.1,5.4-20.3,7.3-30.4c-0.8-7-0.2-14.2,1.9-21.2c8.8-29.4,41.3-45.7,72.5-36.4c16.1,4.8,28.7,15.5,36,28.8
													c19.2,31.5-2,96.1-12.4,123.3c-10,26.4-23.4,57.1-39.7,80.6c-50.9,73.4-143.5,132-227.7,156.9c-50.5,15-162,31-162,31
													s9.1,6.5,18.9,11.5c2.3,1.2,4.5,2.3,6.8,3.5c4.8,2.8,10.1,5.5,15.3,7.5c47.1,22.2,102.8,42.5,164,53.4
													c120.4,21.4,237.7-7.5,301.5-25.8c12.2-7.2,27.7-9.5,42.9-5c27.8,8.3,43.9,36.3,36.1,62.5c-5.3,17.6-20,29.9-37.5,33.6
													c-24.3,9.4-52,15.4-64.5,21.1c-5.2,2.4-52.5,19.2-61.5,22.9c-3,1.2,66.8-4.1,71.3-3.8c1.2,0.1,2.3,0.2,3.5,0.3
													c5.2-0.1,10.5,0.6,15.8,2.2c25.3,7.6,40.3,32.5,33.4,55.5c-0.9,3-2.1,5.8-3.6,8.5c-2.9,5.7-7.5,11.2-13.9,15.9
													c-57.9,42.5-241.8-16.7-249.4-12c-3.5,2.1,2.1,11.8,6.4,15.8c8.5,7.8,30.1,24,44.3,31c3,0.3,6,0.8,8.9,1.7
													c21.3,6.4,34,27,28.2,46.1c-3.5,11.6-12.9,20-24.6,23.3c-25.1,8.6-78.6-7.2-123.7-23.6c-35.3-11.3-72.4-25.5-110.1-42.3
													c-7.9-3.5-15.7-7.1-23.4-10.7c-37.5-16.1-74.3-33.7-108.6-52.1c-102.7-55-185.4-139.5-293.8-186.4
													c-80.2-34.7-375.3-68.5-375.3-68.5l-54.9-233.7l-36-153.1c-0.2-0.2,35.4-4,43.7-6.1c76.5-99.7,187.6-192,325-262.1
													C3202.7-400.8,3239.7-417.1,3276.7-431.2z"/>
											</defs>
											<clipPath id="SVGID_106_">
												<use xlink:href="#SVGID_105_"  style="overflow:visible;"/>
											</clipPath>
											<g class="st74">
												<path class="st6" d="M4081.4,528.6c15.9-4.7,34.1-2.2,35.4,4.6c1.4,7.4-10.4,17.6-25,21c-18.4,4.2-29.3,6.2-31.7-0.3
													C4057.8,547.3,4065.5,533.3,4081.4,528.6"/>
											</g>
										</g>
										<g>
											<defs>
												
													<rect id="SVGID_107_" x="3891.7" y="632.8" transform="matrix(0.958 0.2868 -0.2868 0.958 349.3187 -1095.1886)" width="43" height="24"/>
											</defs>
											<clipPath id="SVGID_108_">
												<use xlink:href="#SVGID_107_"  style="overflow:visible;"/>
											</clipPath>
											<g class="st75">
												<g>
													<defs>
														<path id="SVGID_109_" d="M3276.7-431.2c14.6-10.1,27.9-19.3,39.1-27.1c43.7-30.7,198.4-101.5,271-84.3
															c2.2,0.5,4.6,1.2,7.1,2.1c1.6,0.4,3.2,0.8,4.8,1.3c35.2,10.5,55.9,45,46.4,76.9c-9.1,30.4-42.5,47.6-76,40.1
															c-117.4,10.1-218.7,85.4-253,200.2c-45.8,153,48.9,316.7,211.5,365.4c162.5,48.7,331.7-36.1,377.5-189.1
															c3-10.1,5.4-20.3,7.3-30.4c-0.8-7-0.2-14.2,1.9-21.2c8.8-29.4,41.3-45.7,72.5-36.4c16.1,4.8,28.7,15.5,36,28.8
															c19.2,31.5-2,96.1-12.4,123.3c-10,26.4-23.4,57.1-39.7,80.6c-50.9,73.4-143.5,132-227.7,156.9c-50.5,15-162,31-162,31
															s9.1,6.5,18.9,11.5c2.3,1.2,4.5,2.3,6.8,3.5c4.8,2.8,10.1,5.5,15.3,7.5c47.1,22.2,102.8,42.5,164,53.4
															c120.4,21.4,237.7-7.5,301.5-25.8c12.2-7.2,27.7-9.5,42.9-5c27.8,8.3,43.9,36.3,36.1,62.5
															c-5.3,17.6-20,29.9-37.5,33.6c-24.3,9.4-52,15.4-64.5,21.1c-5.2,2.4-52.5,19.2-61.5,22.9c-3,1.2,66.8-4.1,71.3-3.8
															c1.2,0.1,2.3,0.2,3.5,0.3c5.2-0.1,10.5,0.6,15.8,2.2c25.3,7.6,40.3,32.5,33.4,55.5c-0.9,3-2.1,5.8-3.6,8.5
															c-2.9,5.7-7.5,11.2-13.9,15.9c-57.9,42.5-241.8-16.7-249.4-12c-3.5,2.1,2.1,11.8,6.4,15.8c8.5,7.8,30.1,24,44.3,31
															c3,0.3,6,0.8,8.9,1.7c21.3,6.4,34,27,28.2,46.1c-3.5,11.6-12.9,20-24.6,23.3c-25.1,8.6-78.6-7.2-123.7-23.6
															c-35.3-11.3-72.4-25.5-110.1-42.3c-7.9-3.5-15.7-7.1-23.4-10.7c-37.5-16.1-74.3-33.7-108.6-52.1
															c-102.7-55-185.4-139.5-293.8-186.4c-80.2-34.7-375.3-68.5-375.3-68.5l-54.9-233.7l-36-153.1
															c-0.2-0.2,35.4-4,43.7-6.1c76.5-99.7,187.6-192,325-262.1C3202.7-400.8,3239.7-417.1,3276.7-431.2z"/>
													</defs>
													<clipPath id="SVGID_110_">
														<use xlink:href="#SVGID_109_"  style="overflow:visible;"/>
													</clipPath>
													<g class="st76">
														<path class="st6" d="M3910.7,634.9c12.4-0.6,25.1,3.9,24.7,8.5c-0.4,5.1-14.7,9.1-22.2,9.9
															c-7.5,0.8-22.4-0.5-22.8-5.1C3890,643.5,3898.3,635.5,3910.7,634.9"/>
													</g>
												</g>
												<path class="st15" d="M2592.2-103.4l67,447.8l269-49.1l-83.9-447.6L2592.2-103.4"/>
												<g>
													<defs>
														
															<rect id="SVGID_111_" x="2598.8" y="-183" transform="matrix(0.958 0.2868 -0.2868 0.958 84.1525 -788.5201)" width="270" height="152"/>
													</defs>
													<clipPath id="SVGID_112_">
														<use xlink:href="#SVGID_111_"  style="overflow:visible;"/>
													</clipPath>
													<g class="st77">
														<g>
															<defs>
																<polygon id="SVGID_113_" points="2592.2,-103.4 2659.2,344.4 2928.2,295.2 2844.4,-152.4 																"/>
															</defs>
															<clipPath id="SVGID_114_">
																<use xlink:href="#SVGID_113_"  style="overflow:visible;"/>
															</clipPath>
															<g class="st78">
																<path class="st18" d="M2592.2-103.4l9.5,36.1l268.7-25.8l-2.7-63.5L2592.2-103.4"/>
															</g>
														</g>
														<path class="st19" d="M1517.6,538.3l208.7-697l1030.2-76l96.8,585.6L1517.6,538.3"/>
														<g>
															<defs>
																
																	<rect id="SVGID_115_" x="2564.4" y="-196" transform="matrix(0.958 0.2868 -0.2868 0.958 63.4046 -752.9406)" width="75" height="72"/>
															</defs>
															<clipPath id="SVGID_116_">
																<use xlink:href="#SVGID_115_"  style="overflow:visible;"/>
															</clipPath>
															<g class="st79">
																<g>
																	<defs>
																		<polygon id="SVGID_117_" points="1517.6,538.3 1726.3,-158.7 2756.4,-234.7 2853.2,350.9 																		"/>
																	</defs>
																	<clipPath id="SVGID_118_">
																		<use xlink:href="#SVGID_117_"  style="overflow:visible;"/>
																	</clipPath>
																	<g class="st80">
																		<path class="st22" d="M2591.7-126.5c-19.7-5.9-31.2-25.8-25.6-44.3c5.6-18.6,26.1-28.9,45.8-23
																			c19.7,5.9,31.2,25.7,25.6,44.3C2631.9-130.9,2611.4-120.6,2591.7-126.5"/>
																	</g>
																</g>
																<g>
																	<defs>
																		
																			<rect id="SVGID_119_" x="2452.5" y="-198.2" transform="matrix(0.958 0.2868 -0.2868 0.958 57.9249 -720.9556)" width="75" height="71"/>
																	</defs>
																	<clipPath id="SVGID_120_">
																		<use xlink:href="#SVGID_119_"  style="overflow:visible;"/>
																	</clipPath>
																	<g class="st81">
																		<g>
																			<defs>
																				<polygon id="SVGID_121_" points="1517.6,538.3 1726.3,-158.7 2756.4,-234.7 2853.2,350.9 																				
																					"/>
																			</defs>
																			<clipPath id="SVGID_122_">
																				<use xlink:href="#SVGID_121_"  style="overflow:visible;"/>
																			</clipPath>
																			<g class="st82">
																				<path class="st22" d="M2479.6-128.9c-19.7-5.9-31.2-25.8-25.6-44.3c5.6-18.6,26.1-28.9,45.7-23
																					c19.7,5.9,31.2,25.7,25.6,44.3C2519.8-133.3,2499.3-123,2479.6-128.9"/>
																			</g>
																		</g>
																		<g>
																			<defs>
																				
																					<rect id="SVGID_123_" x="2567.5" y="-192.2" transform="matrix(0.958 0.2868 -0.2868 0.958 63.3433 -752.8093)" width="68" height="64"/>
																			</defs>
																			<clipPath id="SVGID_124_">
																				<use xlink:href="#SVGID_123_"  style="overflow:visible;"/>
																			</clipPath>
																			<g class="st83">
																				<g>
																					<defs>
																						<path id="SVGID_125_" d="M2591.7-126.5c-19.7-5.9-31.2-25.8-25.6-44.3c5.6-18.6,26.1-28.9,45.8-23
																							c19.7,5.9,31.2,25.7,25.6,44.3C2631.9-130.9,2611.4-120.6,2591.7-126.5z"/>
																					</defs>
																					<clipPath id="SVGID_126_">
																						<use xlink:href="#SVGID_125_"  style="overflow:visible;"/>
																					</clipPath>
																					<g class="st84">
																						<g>
																							<defs>
																								<polygon id="SVGID_127_" points="1517.6,538.3 1726.3,-158.7 2756.4,-234.7 2853.2,350.9 
																																																	"/>
																							</defs>
																							<clipPath id="SVGID_128_">
																								<use xlink:href="#SVGID_127_"  style="overflow:visible;"/>
																							</clipPath>
																							<g class="st85">
																								<path class="st28" d="M2592.7-129.8c-17.7-5.3-28.1-23.2-23.1-39.9c5-16.7,23.5-26,41.2-20.7
																									c17.7,5.3,28.1,23.2,23.1,39.9C2628.9-133.8,2610.5-124.5,2592.7-129.8"/>
																							</g>
																						</g>
																					</g>
																				</g>
																				<g>
																					<defs>
																						
																							<rect id="SVGID_129_" x="2455.4" y="-194.4" transform="matrix(0.958 0.2868 -0.2868 0.958 57.995 -720.763)" width="68" height="64"/>
																					</defs>
																					<clipPath id="SVGID_130_">
																						<use xlink:href="#SVGID_129_"  style="overflow:visible;"/>
																					</clipPath>
																					<g class="st86">
																						<g>
																							<defs>
																								<path id="SVGID_131_" d="M2479.6-128.9c-19.7-5.9-31.2-25.8-25.6-44.3c5.6-18.6,26.1-28.9,45.7-23
																									c19.7,5.9,31.2,25.7,25.6,44.3C2519.8-133.3,2499.3-123,2479.6-128.9z"/>
																							</defs>
																							<clipPath id="SVGID_132_">
																								<use xlink:href="#SVGID_131_"  style="overflow:visible;"/>
																							</clipPath>
																							<g class="st87">
																								<g>
																									<defs>
																										<polygon id="SVGID_133_" points="1517.6,538.3 1726.3,-158.7 2756.4,-234.7 2853.2,350.9 
																																																					"/>
																									</defs>
																									<clipPath id="SVGID_134_">
																										<use xlink:href="#SVGID_133_"  style="overflow:visible;"/>
																									</clipPath>
																									<g class="st88">
																										<path class="st28" d="M2480.6-132.3c-17.7-5.3-28.1-23.2-23.1-39.9c5-16.7,23.5-26,41.2-20.7
																											c17.7,5.3,28.1,23.2,23.1,39.9C2516.8-136.2,2498.4-127,2480.6-132.3"/>
																									</g>
																								</g>
																							</g>
																						</g>
																						<g>
																							<defs>
																								
																									<rect id="SVGID_135_" x="2599.5" y="-158.6" transform="matrix(0.958 0.2868 -0.2868 0.958 65.7157 -753.7819)" width="13" height="12"/>
																							</defs>
																							<clipPath id="SVGID_136_">
																								<use xlink:href="#SVGID_135_"  style="overflow:visible;"/>
																							</clipPath>
																							<g class="st89">
																								<g>
																									<defs>
																										<path id="SVGID_137_" d="M2591.7-126.5c-19.7-5.9-31.2-25.8-25.6-44.3c5.6-18.6,26.1-28.9,45.8-23
																											c19.7,5.9,31.2,25.7,25.6,44.3C2631.9-130.9,2611.4-120.6,2591.7-126.5z"/>
																									</defs>
																									<clipPath id="SVGID_138_">
																										<use xlink:href="#SVGID_137_"  style="overflow:visible;"/>
																									</clipPath>
																									<g class="st90">
																										<g>
																											<defs>
																												<polygon id="SVGID_139_" points="1517.6,538.3 1726.3,-158.7 2756.4,-234.7 2853.2,350.9 
																																																									"/>
																											</defs>
																											<clipPath id="SVGID_140_">
																												<use xlink:href="#SVGID_139_"  style="overflow:visible;"/>
																											</clipPath>
																											<g class="st91">
																												<path d="M2604.1-146.9c-3.1-0.9-5-4.1-4.1-7.1c0.9-3,4.2-4.6,7.3-3.7c3.2,0.9,5,4.1,4.1,7.1
																													C2610.5-147.6,2607.2-146,2604.1-146.9"/>
																											</g>
																										</g>
																									</g>
																								</g>
																								<g>
																									<defs>
																										
																											<rect id="SVGID_141_" x="2487.4" y="-160.8" transform="matrix(0.958 0.2868 -0.2868 0.958 60.3674 -721.7356)" width="13" height="12"/>
																									</defs>
																									<clipPath id="SVGID_142_">
																										<use xlink:href="#SVGID_141_"  style="overflow:visible;"/>
																									</clipPath>
																									<g class="st92">
																										<g>
																											<defs>
																												<path id="SVGID_143_" d="M2479.6-128.9c-19.7-5.9-31.2-25.8-25.6-44.3c5.6-18.6,26.1-28.9,45.7-23
																													c19.7,5.9,31.2,25.7,25.6,44.3C2519.8-133.3,2499.3-123,2479.6-128.9z"/>
																											</defs>
																											<defs>
																												
																													<rect id="SVGID_144_" x="2592.3" y="-176.4" transform="matrix(0.958 0.2868 -0.2868 0.958 60.3053 -752.4669)" width="13" height="12"/>
																											</defs>
																											<clipPath id="SVGID_145_">
																												<use xlink:href="#SVGID_143_"  style="overflow:visible;"/>
																											</clipPath>
																											<clipPath id="SVGID_146_" class="st93">
																												<use xlink:href="#SVGID_144_"  style="overflow:visible;"/>
																											</clipPath>
																											<g class="st94">
																												<g>
																													<defs>
																														
																															<rect id="SVGID_147_" x="1633.2" y="-251.2" transform="matrix(0.958 0.2868 -0.2868 0.958 163.7165 -634.0476)" width="1226" height="986"/>
																													</defs>
																													<defs>
																														
																															<rect id="SVGID_148_" x="4828.1" y="-2601.2" transform="matrix(0.958 0.2868 -0.2868 0.958 -424.7051 -1680.7789)" width="1394" height="622"/>
																													</defs>
																													<defs>
																														
																															<rect id="SVGID_149_" x="5288.8" y="-2395.5" transform="matrix(0.958 0.2868 -0.2868 0.958 -445.3962 -1631.261)" width="114" height="119"/>
																													</defs>
																													<defs>
																														
																															<rect id="SVGID_150_" x="5300.5" y="-2393.8" transform="matrix(0.958 0.2868 -0.2868 0.958 -444.6612 -1632.8372)" width="102" height="119"/>
																													</defs>
																													<defs>
																														
																															<rect id="SVGID_151_" x="6417.3" y="-2569.1" transform="matrix(0.958 0.2868 -0.2868 0.958 -453.9722 -1956.8352)" width="71" height="82"/>
																													</defs>
																													<defs>
																														
																															<rect id="SVGID_152_" x="6421.3" y="-2564.9" transform="matrix(0.958 0.2868 -0.2868 0.958 -453.9109 -1956.9666)" width="64" height="74"/>
																													</defs>
																													<defs>
																														
																															<rect id="SVGID_153_" x="6443.5" y="-2525.7" transform="matrix(0.958 0.2868 -0.2868 0.958 -451.4064 -1955.4789)" width="12" height="14"/>
																													</defs>
																													<defs>
																														
																															<rect id="SVGID_154_" x="6449.8" y="-2546.7" transform="matrix(0.958 0.2868 -0.2868 0.958 -457.1858 -1958.1737)" width="12" height="14"/>
																													</defs>
																													<defs>
																														
																															<rect id="SVGID_155_" x="6523.1" y="-2577.1" transform="matrix(0.958 0.2868 -0.2868 0.958 -451.8279 -1987.4971)" width="71" height="82"/>
																													</defs>
																													<defs>
																														
																															<rect id="SVGID_156_" x="6527.1" y="-2573" transform="matrix(0.958 0.2868 -0.2868 0.958 -451.7666 -1987.6284)" width="64" height="74"/>
																													</defs>
																													<defs>
																														
																															<rect id="SVGID_157_" x="6549.2" y="-2533.7" transform="matrix(0.958 0.2868 -0.2868 0.958 -449.2621 -1986.1409)" width="12" height="14"/>
																													</defs>
																													<defs>
																														
																															<rect id="SVGID_158_" x="6555.5" y="-2554.7" transform="matrix(0.958 0.2868 -0.2868 0.958 -455.0415 -1988.8357)" width="12" height="14"/>
																													</defs>
																													<defs>
																														
																															<rect id="SVGID_159_" x="6333.8" y="-2853.2" transform="matrix(0.958 0.2868 -0.2868 0.958 -443.4254 -2080.9631)" width="1096" height="598"/>
																													</defs>
																													<clipPath id="SVGID_160_">
																														<use xlink:href="#SVGID_147_"  style="overflow:visible;"/>
																													</clipPath>
																													<clipPath id="SVGID_161_" class="st95">
																														<use xlink:href="#SVGID_148_"  style="overflow:visible;"/>
																													</clipPath>
																													<clipPath id="SVGID_162_" class="st96">
																														<use xlink:href="#SVGID_149_"  style="overflow:visible;"/>
																													</clipPath>
																													<clipPath id="SVGID_163_" class="st97">
																														<use xlink:href="#SVGID_150_"  style="overflow:visible;"/>
																													</clipPath>
																													<clipPath id="SVGID_164_" class="st98">
																														<use xlink:href="#SVGID_151_"  style="overflow:visible;"/>
																													</clipPath>
																													<clipPath id="SVGID_165_" class="st99">
																														<use xlink:href="#SVGID_152_"  style="overflow:visible;"/>
																													</clipPath>
																													<clipPath id="SVGID_166_" class="st100">
																														<use xlink:href="#SVGID_153_"  style="overflow:visible;"/>
																													</clipPath>
																													<clipPath id="SVGID_167_" class="st101">
																														<use xlink:href="#SVGID_154_"  style="overflow:visible;"/>
																													</clipPath>
																													<clipPath id="SVGID_168_" class="st102">
																														<use xlink:href="#SVGID_155_"  style="overflow:visible;"/>
																													</clipPath>
																													<clipPath id="SVGID_169_" class="st103">
																														<use xlink:href="#SVGID_156_"  style="overflow:visible;"/>
																													</clipPath>
																													<clipPath id="SVGID_170_" class="st104">
																														<use xlink:href="#SVGID_157_"  style="overflow:visible;"/>
																													</clipPath>
																													<clipPath id="SVGID_171_" class="st105">
																														<use xlink:href="#SVGID_158_"  style="overflow:visible;"/>
																													</clipPath>
																													<clipPath id="SVGID_172_" class="st106">
																														<use xlink:href="#SVGID_159_"  style="overflow:visible;"/>
																													</clipPath>
																													<path class="st107" d="M3952.9-500.2c-86.9-48.6-118.7-157.4-71-242.8c47.7-85.4,157.1-115.2,244-66.6
																														c86.9,48.6,118.7,157.4,71,242.8C4149.1-481.4,4039.8-451.5,3952.9-500.2"/>
																													<path class="st108" d="M3966.2-524.1c-73.5-41.1-100.4-133.1-60-205.2
																														c40.4-72.2,132.8-97.4,206.3-56.3c73.5,41.1,100.4,133.1,60,205.2
																														C4132.1-508.2,4039.7-483,3966.2-524.1"/>
																													<path class="st109" d="M4181.4-706c15.2,40,13.4,85.8-8.9,125.6c-40.4,72.2-132.8,97.4-206.3,56.3
																														c-35.1-19.6-59.5-50.8-71.1-86c12.3,32.5,35.9,61.2,68.9,79.6c73.5,41.1,165.9,15.9,206.3-56.3
																														C4191.4-624.4,4194.1-667.6,4181.4-706"/>
																													<path class="st110" d="M3968.7-522.7c-0.8-0.5-1.7-0.9-2.5-1.4c-73.5-41.1-100.4-133.1-60-205.2
																														c40.4-72.2,132.8-97.4,206.3-56.3c0.8,0.5,1.7,0.9,2.5,1.4c-73.1-39.2-163.9-13.7-203.8,57.7
																														C3871.3-655.2,3897.1-564.5,3968.7-522.7"/>
																													<path class="st111" d="M4000.1-593.4c-1.2-0.6-2.4-1.2-3.6-1.9l-6.8,12.1l-14.1-7.9l7.2-12.8
																														c-9.9-7.1-15.4-13.5-19.6-19.5l10.5-18.8c7,8.6,17,18.3,32.9,27.1c15.1,8.4,26.7,7.2,32.8-3.6
																														c5.9-10.6,4.3-17.4-7.9-29.1l-11.2-11.4c-19.2-18.7-27.8-35.2-14.5-59.1c11.2-20,29.2-28.4,53.1-21.8
																														l8-14.3l14.1,7.9l-6.8,12.2c1.2,0.6,2.4,1.2,3.6,1.9l6.8-12.1l14.1,7.9l-7,12.6
																														c12.5,8.5,21.1,17.4,26.6,25.6l-10.6,19c-8.9-11.1-20.5-22.3-36.2-31c-3.2-1.8-6.2-3.2-9-4.2
																														c0.2,0.1,0.4,0.2,0.6,0.3l-9.4-2.5c-9.5-1.1-16.2,2.9-20.6,10.8c-6.3,11.2-3.5,18.4,9.7,31.7
																														l11.6,11.1c17.3,16.6,24,33.8,11.2,56.5c-10.1,18-27.5,26-50.4,19.5l-7.8,14l-14.1-7.9L4000.1-593.4z"
																														/>
																													<path class="st112" d="M4080.3-703.6l-13.5-8.9C4071.7-709.8,4076.2-706.8,4080.3-703.6"/>
																													<path class="st111" d="M4004.8-582.9c-1.2-0.6-2.4-1.2-3.6-1.9l-6.8,12.1l-14.1-7.9l7.2-12.8
																														c-9.9-7.1-15.4-13.5-19.6-19.5l10.5-18.8c7,8.6,17,18.3,32.9,27.1c15.1,8.4,26.7,7.2,32.8-3.6
																														c5.9-10.6,4.3-17.4-7.9-29.1l-11.2-11.4c-19.2-18.7-27.8-35.2-14.4-59.1c11.2-20,29.2-28.4,53.1-21.8
																														l8-14.3l14.1,7.9l-6.8,12.2c1.2,0.6,2.4,1.2,3.6,1.9l6.8-12.1l14.1,7.9l-7,12.6
																														c12.5,8.5,21.1,17.4,26.6,25.6l-10.6,19c-8.9-11.2-20.5-22.3-36.2-31.1c-3.2-1.8-6.2-3.2-9-4.2
																														c0.2,0.1,0.4,0.2,0.6,0.3l-9.4-2.5c-9.5-1.1-16.2,2.9-20.6,10.8c-6.3,11.2-3.5,18.4,9.7,31.7
																														l11.6,11.1c17.3,16.6,24,33.8,11.2,56.5c-10.1,18.1-27.5,26-50.5,19.5l-7.8,14l-14.1-7.9L4004.8-582.9
																														z"/>
																													<path class="st113" d="M4085-693.2l-13.5-8.9C4076.4-699.4,4080.9-696.3,4085-693.2"/>
																													<path class="st111" d="M5872.7-2510.5c57.2,15.9,112.8,36.7,169.4,54.8c38.2,12.2,79.6,7.6,117.7,20
																														c11.9,3.9,40.4,16.1,47,29.4c21.9,44.2,1.7,210.8-9.4,258.2c-7.1,30.2-15.2,60.5-20,91.1
																														c-0.7,4.6-4.9,30-3.9,30.7c-3.6,0.9-72.8,18.5-104.7,33.3c-28.3,13.1-168.2,59.8-242.1,30.5
																														c-107.3-42.6-203.3-245.9-401.8-286.1c-216.8-43.9-227.2,82.5-306.2,104.6
																														c-31.1,8.7-75.5,10.7-82-12.8c0-0.2-49.8,29.4-93.3,20.5c-17.4-3.6-27.2-14.9-28.3-25.8
																														c-1-9.3,1.5-18.1-3.8-20.1c-4.8-1.7-19.6,4.6-29.3,7.4c-30.9,8.8-50.6-3.3-55.4-32.7
																														c-0.2-1-1.3-31.2,19.4-49.4c6.8-6-34.5,10.2-49.8-34c-6.2-17.9,18.6-41.6,39.1-62.5
																														c268.7-273.4,600.9-254.1,694.5-245.1C5671.1-2585,5787.3-2534.3,5872.7-2510.5z"/>
																													<path class="st114" d="M6173.5-2026.2l0.1,0C6173.6-2026.2,6173.6-2026.2,6173.5-2026.2"/>
																													<path class="st115" d="M6340.2-2478.5l5.8,498.2l-191.9-8.6l32.9-461.8L6340.2-2478.5"/>
																													<path class="st116" d="M7492.6-2683.4l-209.3,699.1l-1041.9,21.5l63.3-571.7L7492.6-2683.4"/>
																												</g>
																											</g>
																										</g>
																									</g>
																								</g>
																							</g>
																						</g>
																					</g>
																				</g>
																			</g>
																		</g>
																	</g>
																</g>
															</g>
														</g>
													</g>
												</g>
											</g>
										</g>
									</g>
								</g>
							</g>
						</g>
					</g>
				</g>
			</g>
		</g>
	</g>
</g>
<polygon class="st60" points="1582,710.8 1710.4,-5.4 2725.4,-197.6 2887.8,373.3 "/>
<path class="st61" d="M2452-264.9c-18.1-9.8-25.3-31.5-16.1-48.6c9.2-17.1,31.4-23,49.5-13.2c18.1,9.8,25.3,31.5,16.1,48.6
	C2492.2-261.1,2470.1-255.2,2452-264.9z"/>
<rect x="2352" y="-337.4" transform="matrix(0.88 0.475 -0.475 0.88 125.5888 -1159.9287)" class="st61" width="13" height="12"/>
</svg>
